<?xml version="1.0" encoding="UTF-8"?>
<svg version="1.1" xmlns="http://www.w3.org/2000/svg" width="298" height="279">
<path d="M0 0 C98.34 0 196.68 0 298 0 C298 92.07 298 184.14 298 279 C199.66 279 101.32 279 0 279 C0 186.93 0 94.86 0 0 Z " fill="#1F78BD" transform="translate(0,0)"/>
<path d="M0 0 C41.91 0 83.82 0 127 0 C123.91550904 1.54224548 120.96022656 2.76007747 117.72216797 3.90136719 C84.58556345 15.68645187 58.31565162 39.24258122 43.05029297 70.97412109 C28.94903397 102.09222334 27.50423431 138.77973764 39.40014648 170.79077148 C43.53479618 181.29872532 48.11943936 191.01632459 55 200 C55.4940332 200.65291016 55.98806641 201.30582031 56.49707031 201.97851562 C62.9922952 210.4780491 69.67188997 218.23223564 78 225 C74.52083373 228.57492314 70.91881985 231.82362329 67.0625 235 C66.06347656 235.825 65.06445312 236.65 64.03515625 237.5 C62.48645587 238.7756348 60.93609462 240.04992548 59.35498047 241.28515625 C55.24827992 244.48666359 55.24827992 244.48666359 53 249 C52.7553665 251.83888642 52.6298755 254.53745756 52.625 257.375 C52.58826172 258.48875 52.58826172 258.48875 52.55078125 259.625 C52.52287674 264.88965098 53.59414522 267.7850916 57 272 C58.77217044 273.77217044 61.13430645 273.1225187 63.49456984 273.12908131 C64.68666718 273.12471205 64.68666718 273.12471205 65.90284729 273.12025452 C67.15982128 273.12153615 67.15982128 273.12153615 68.44218868 273.12284368 C71.27210859 273.12450106 74.10197024 273.11897293 76.93188477 273.11352539 C78.951711 273.11324355 80.97153735 273.11340119 82.99136353 273.1139679 C88.49320386 273.11425599 93.99502259 273.10835741 99.49685788 273.10139394 C105.23976105 273.0951623 110.98266465 273.09455675 116.72557068 273.09336853 C127.60886893 273.09025465 138.49215719 273.08204051 149.37545103 273.07201904 C161.76217796 273.06085965 174.14890536 273.05534789 186.53563607 273.05032361 C212.02376293 273.03985794 237.5118809 273.02225741 263 273 C263.64976807 271.92693604 264.29953613 270.85387207 264.96899414 269.74829102 C265.51723595 268.8428933 265.51723595 268.8428933 266.07655334 267.91920471 C267.64685935 264.65562833 267.54246441 261.49613222 267.4375 257.9375 C267.44813477 256.9155957 267.44813477 256.9155957 267.45898438 255.87304688 C267.40030586 251.17425178 266.55028752 247.93488568 264 244 C261.44251772 241.43445506 261.44251772 241.43445506 258.4375 239.125 C257.91317383 238.70299316 257.38884766 238.28098633 256.84863281 237.84619141 C255.23988685 236.55443733 253.62026351 235.2772592 252 234 C250.08314858 232.45856306 248.16646347 230.91691925 246.25 229.375 C244.83435415 228.24871572 243.41810355 227.12318821 242 226 C242.88967344 224.91160226 243.78711574 223.82955392 244.6875 222.75 C245.18636719 222.14671875 245.68523437 221.5434375 246.19921875 220.921875 C248 219 248 219 250.4453125 217.06640625 C268.26266854 202.65450817 280.32911571 176.90125746 285 155 C285.21140625 154.07703125 285.4228125 153.1540625 285.640625 152.203125 C289.69968041 133.53147012 289.37373389 113.55066442 285 95 C284.58234375 93.22109375 284.58234375 93.22109375 284.15625 91.40625 C275.69510538 59.02048956 254.21430732 32.4712168 226 15 C215.23878776 8.78065981 203.29453222 3.16693982 191 1 C191 0.67 191 0.34 191 0 C226.31 0 261.62 0 298 0 C298 92.07 298 184.14 298 279 C199.66 279 101.32 279 0 279 C0 186.93 0 94.86 0 0 Z " fill="#000000" transform="translate(0,0)"/>
<path d="M0 0 C1.44278575 1.2197597 2.85729664 2.47335526 4.25 3.75 C5.20390625 4.61238281 6.1578125 5.47476563 7.140625 6.36328125 C22.26016072 20.4928616 33.23492823 39.79748226 34.35986328 60.80126953 C34.61666463 70.29428759 34.35659623 79.45145738 32.25 88.75 C32.07855469 89.61238281 31.90710938 90.47476563 31.73046875 91.36328125 C28.91481975 103.62497851 22.51953888 115.34362873 14.25 124.75 C13.65832031 125.48347656 13.06664062 126.21695313 12.45703125 126.97265625 C-1.6390795 143.9170533 -23.03455914 153.69033875 -44.75 155.75 C-68.7901409 157.35455273 -90.69100149 149.75477761 -109.0234375 134.2109375 C-122.69703613 121.86943731 -130.96229171 107.41221798 -135.75 89.75 C-135.99492187 88.86570312 -136.23984375 87.98140625 -136.4921875 87.0703125 C-141.72188995 64.07394967 -136.08972893 41.48729541 -123.95703125 21.84765625 C-122.30737176 19.39770429 -120.58235759 17.06583997 -118.75 14.75 C-118.15832031 13.99460937 -117.56664063 13.23921875 -116.95703125 12.4609375 C-88.31560566 -21.9087732 -35.28375084 -26.01859324 0 0 Z " fill="#FCFDFD" transform="translate(211.75,58.25)"/>
<path d="M0 0 C1.38277965 -0.00270617 2.76555742 -0.00659781 4.14833069 -0.01159668 C7.02509957 -0.01744117 9.90136642 -0.00909642 12.77807617 0.00976562 C16.42335317 0.03253146 20.06744993 0.01941612 23.71268368 -0.00452423 C26.56218484 -0.01913963 29.41141689 -0.01430503 32.2609272 -0.00401306 C34.24467378 -0.00013267 36.22843183 -0.01205484 38.21214294 -0.02453613 C67.64232174 0.27512582 94.12738722 18.33586219 114.22265625 38.53125 C138.86988633 65.51348082 148.43112 99.65695957 147.22265625 135.53125 C145.27488271 167.96621729 129.89300484 199.56661758 106.0390625 221.54296875 C104.46115053 222.90498934 102.84688296 224.22480678 101.22265625 225.53125 C104.28684303 228.7997159 107.52107659 231.62314222 111.03515625 234.40625 C117.81032986 239.78385417 117.81032986 239.78385417 120.72265625 242.21875 C121.35171875 242.73824219 121.98078125 243.25773438 122.62890625 243.79296875 C126.51207404 248.02828656 126.60853862 252.90041088 126.59765625 258.40625 C126.59822021 259.11789307 126.59878418 259.82953613 126.59936523 260.56274414 C126.47453704 266.48833181 125.46410991 270.28979634 121.22265625 274.53125 C118.5913304 274.64237032 115.98576995 274.68795443 113.35345459 274.69187927 C112.10177235 274.699511 112.10177235 274.699511 110.82480359 274.70729691 C108.00657654 274.72309194 105.18837525 274.73156495 102.37011719 274.73999023 C100.35840184 274.749523 98.34668815 274.7594139 96.3349762 274.76963806 C89.7090145 274.8010895 83.08303998 274.82129705 76.45703125 274.83984375 C75.33119157 274.84314107 74.20535189 274.84643839 73.04539585 274.84983563 C62.43478972 274.88061899 51.82418086 274.9073374 41.21354294 274.92425442 C27.6225728 274.94617384 14.03199714 274.9881623 0.44118476 275.05769199 C-9.10447998 275.1048754 -18.65003808 275.12918044 -28.1958158 275.1364513 C-33.9020989 275.14141618 -39.60793795 275.15657643 -45.31409454 275.1961956 C-50.68219626 275.2329751 -56.04959875 275.24150007 -61.41780281 275.22818947 C-63.389502 275.22824356 -65.36123149 275.23859863 -67.33281517 275.2599411 C-70.0227966 275.28750637 -72.7102074 275.27816744 -75.40020752 275.25950623 C-76.18260559 275.27630115 -76.96500367 275.29309608 -77.77111077 275.31039995 C-80.7002894 275.25953255 -83.05501819 275.12768533 -85.36882162 273.21714222 C-89.59203083 268.26370178 -90.01064483 264.56436416 -90.08984375 258.28125 C-90.11884766 257.52972656 -90.14785156 256.77820313 -90.17773438 256.00390625 C-90.23826841 250.66759794 -89.3368008 247.72988468 -85.77734375 243.53125 C-83.78704471 241.57348897 -81.69381517 239.79042605 -79.52734375 238.03125 C-78.95540283 237.5571167 -78.38346191 237.0829834 -77.79418945 236.59448242 C-73.55483113 233.10222658 -69.22354072 229.75692231 -64.77734375 226.53125 C-65.76734375 225.54125 -65.76734375 225.54125 -66.77734375 224.53125 C-67.24011719 224.06332031 -67.70289063 223.59539062 -68.1796875 223.11328125 C-69.25556485 222.04792593 -70.35273307 221.00369905 -71.46875 219.98046875 C-78.56464414 213.29936592 -84.15719055 205.45046693 -89.77734375 197.53125 C-90.51339844 196.50257813 -91.24945313 195.47390625 -92.0078125 194.4140625 C-109.96941214 167.3820343 -115.03348498 132.12365881 -109.21484375 100.53125 C-102.2474704 67.03610576 -82.38420856 37.29459222 -53.90429688 18.28076172 C-37.13353329 7.45072527 -20.24035542 -0.12715013 0 0 Z M-70.77734375 38.53125 C-71.33566895 39.06476074 -71.89399414 39.59827148 -72.46923828 40.14794922 C-92.71743198 59.78675816 -105.3372664 89.16212678 -105.98046875 117.27734375 C-106.37258996 155.26131196 -96.80272163 186.72378723 -69.77734375 214.53125 C-61.8605263 222.47062249 -53.56420014 229.001402 -43.77734375 234.53125 C-43.06006701 234.95084834 -42.34279028 235.37044668 -41.60377789 235.80276012 C-35.34607973 239.23043686 -30.41546529 240.26778243 -23.33325195 240.22583008 C-22.34151474 240.23941055 -21.34977753 240.25299103 -20.32798767 240.26698303 C-17.07765336 240.30401546 -13.82865074 240.30432482 -10.578125 240.30078125 C-8.296641 240.31178591 -6.01516177 240.32382227 -3.73368835 240.33683777 C1.03990857 240.35769428 5.81304504 240.35905231 10.58666992 240.34790039 C16.66829291 240.33623325 22.74781843 240.38366965 28.82905865 240.44736195 C33.54013891 240.48819001 38.25072364 240.49170227 42.96195412 240.48496056 C45.20201248 240.48715003 47.44209846 240.50184883 49.68198204 240.52991676 C63.67930657 240.68518862 73.56544624 239.71007965 85.22265625 231.53125 C85.77258429 231.1534823 86.32251232 230.77571461 86.88910484 230.3864994 C114.69207091 211.25492219 134.48491146 183.0020742 140.76660156 149.64257812 C142.1023145 141.77065001 142.54091327 134.13257001 142.47265625 126.15625 C142.46371338 124.97015137 142.45477051 123.78405273 142.44555664 122.56201172 C141.98786154 87.96215951 127.98261978 59.35964109 103.73828125 35.0390625 C78.2092746 10.79405915 45.21256262 0.59728276 10.52832031 1.44677734 C-20.66053772 2.5894441 -48.83730015 16.93016775 -70.77734375 38.53125 Z " fill="#2671C5" transform="translate(141.77734375,-0.53125)"/>
<path d="M0 0 C1.38277965 -0.00270617 2.76555742 -0.00659781 4.14833069 -0.01159668 C7.02509957 -0.01744117 9.90136642 -0.00909642 12.77807617 0.00976562 C16.42335317 0.03253146 20.06744993 0.01941612 23.71268368 -0.00452423 C26.56218484 -0.01913963 29.41141689 -0.01430503 32.2609272 -0.00401306 C34.24467378 -0.00013267 36.22843183 -0.01205484 38.21214294 -0.02453613 C67.64232174 0.27512582 94.12738722 18.33586219 114.22265625 38.53125 C138.86988633 65.51348082 148.43112 99.65695957 147.22265625 135.53125 C145.27488271 167.96621729 129.89300484 199.56661758 106.0390625 221.54296875 C104.46115053 222.90498934 102.84688296 224.22480678 101.22265625 225.53125 C105.20363763 229.77763014 109.61645115 233.29110239 114.2109375 236.859375 C115.20673828 237.68695313 115.20673828 237.68695313 116.22265625 238.53125 C116.22265625 238.86125 116.22265625 239.19125 116.22265625 239.53125 C110.43857066 239.5806509 104.65460761 239.61697 98.87036133 239.64111328 C96.90224061 239.65117707 94.93413487 239.66482934 92.96606445 239.68212891 C90.13879707 239.70636059 87.3117272 239.71772923 84.484375 239.7265625 C83.60303391 239.73688507 82.72169281 239.74720764 81.81364441 239.75784302 C80.99302017 239.75799408 80.17239594 239.75814514 79.3269043 239.75830078 C78.60520554 239.762742 77.88350677 239.76718323 77.13993835 239.77175903 C75.22265625 239.53125 75.22265625 239.53125 72.22265625 237.53125 C73.021875 237.13035156 73.82109375 236.72945312 74.64453125 236.31640625 C102.83571684 221.72448976 124.41290706 197.44813996 135.22265625 167.53125 C139.52378474 153.88971708 141.5951284 140.46799559 141.47265625 126.15625 C141.46371338 124.97015137 141.45477051 123.78405273 141.44555664 122.56201172 C140.98995508 88.1204219 127.10844502 59.49263735 102.9609375 35.26171875 C77.71837857 11.43774991 44.64036739 1.6112971 10.52832031 2.44677734 C-20.47869837 3.58278205 -49.07621848 17.83012473 -70.77734375 39.53125 C-71.56625 40.32015625 -72.35515625 41.1090625 -73.16796875 41.921875 C-98.33517296 68.49703469 -105.62720545 101.44925183 -104.90478516 136.99853516 C-103.74258295 169.21513643 -86.44212057 197.87906821 -63.58984375 219.59375 C-55.48764114 226.82989439 -46.1996905 232.1982974 -36.77734375 237.53125 C-36.77734375 238.19125 -36.77734375 238.85125 -36.77734375 239.53125 C-50.96734375 239.53125 -65.15734375 239.53125 -79.77734375 239.53125 C-76.3658056 236.11971185 -73.21360138 233.16777267 -69.46484375 230.21875 C-68.14033203 229.17267578 -68.14033203 229.17267578 -66.7890625 228.10546875 C-66.12519531 227.58597656 -65.46132812 227.06648437 -64.77734375 226.53125 C-65.76734375 225.54125 -65.76734375 225.54125 -66.77734375 224.53125 C-67.24011719 224.06332031 -67.70289063 223.59539062 -68.1796875 223.11328125 C-69.25556485 222.04792593 -70.35273307 221.00369905 -71.46875 219.98046875 C-78.56464414 213.29936592 -84.15719055 205.45046693 -89.77734375 197.53125 C-90.51339844 196.50257813 -91.24945313 195.47390625 -92.0078125 194.4140625 C-109.96941214 167.3820343 -115.03348498 132.12365881 -109.21484375 100.53125 C-102.2474704 67.03610576 -82.38420856 37.29459222 -53.90429688 18.28076172 C-37.13353329 7.45072527 -20.24035542 -0.12715013 0 0 Z " fill="#2175B6" transform="translate(141.77734375,-0.53125)"/>
<path d="M0 0 C4.95 0 9.9 0 15 0 C15 12.21 15 24.42 15 37 C26.88 37 38.76 37 51 37 C51 24.79 51 12.58 51 0 C55.95 0 60.9 0 66 0 C66 27.06 66 54.12 66 82 C61.05 82 56.1 82 51 82 C51 70.45 51 58.9 51 47 C38.79 47 26.58 47 14 47 C14 58.55 14 70.1 14 82 C9.38 82 4.76 82 0 82 C0 54.94 0 27.88 0 0 Z " fill="#2079BD" transform="translate(126,60)"/>
<path d="M0 0 C8.4349533 -0.14798164 14.60711555 0.37710797 21.88671875 4.94140625 C24.20213188 6.29858303 24.20213188 6.29858303 28 6 C30.45812605 4.95651634 30.45812605 4.95651634 32.9375 3.5625 C38.14865007 0.73543095 42.40297429 -0.14129368 48.3125 -0.0625 C49.63701172 -0.04896484 49.63701172 -0.04896484 50.98828125 -0.03515625 C51.98408203 -0.01775391 51.98408203 -0.01775391 53 0 C53 1.65 53 3.3 53 5 C53.66 5 54.32 5 55 5 C55 6.32 55 7.64 55 9 C55.99 9 56.98 9 58 9 C58.34523148 12.20716371 58.67379517 15.41584979 59 18.625 C59.09539062 19.50929687 59.19078125 20.39359375 59.2890625 21.3046875 C60.04665406 28.88060308 60.10047276 36.39058387 60 44 C59.09644775 44.02505615 58.19289551 44.0501123 57.26196289 44.07592773 C53.9203572 44.17087317 50.57893748 44.27011621 47.23754883 44.37231445 C45.7893576 44.4157163 44.34111346 44.45738744 42.89282227 44.49731445 C40.81510441 44.55489062 38.73765427 44.61862028 36.66015625 44.68359375 C34.78275757 44.73858032 34.78275757 44.73858032 32.86743164 44.79467773 C30.10369496 44.67803906 30.10369496 44.67803906 29 46 C26 46.125 26 46.125 23 46 C22.505 45.505 22.505 45.505 22 45 C19.78312006 44.84126045 17.56144702 44.74866163 15.33984375 44.68359375 C14.67537735 44.66281265 14.01091095 44.64203156 13.3263092 44.62062073 C11.19681457 44.55506342 9.06719332 44.49621215 6.9375 44.4375 C5.49673153 44.39432061 4.05597601 44.35070651 2.61523438 44.30664062 C-0.9230404 44.19937607 -4.46145869 44.09812629 -8 44 C-8.09288089 38.20010461 -8.07403807 32.71767326 -7 27 C-6.71045054 23.52893759 -6.56285608 20.04902562 -6.39453125 16.5703125 C-6.10323661 11.20647321 -6.10323661 11.20647321 -5 9 C-4.34 9 -3.68 9 -3 9 C-3 7.68 -3 6.36 -3 5 C-2.01 5 -1.02 5 0 5 C0 3.35 0 1.7 0 0 Z " fill="#287DBD" transform="translate(135,154)"/>
<path d="M0 0 C2.06928696 1.80601338 4.09757391 3.64604352 6.125 5.5 C7.32382812 6.57507812 7.32382812 6.57507812 8.546875 7.671875 C30.6564991 28.52705234 43.4453076 58.7230706 44.3359375 88.828125 C45.06781048 126.46277746 33.43268627 158.19647802 7.375 185.5625 C-1.96335887 194.58711954 -12.45585494 201.4256699 -23.875 207.5 C-24.55949219 207.89960938 -25.24398437 208.29921875 -25.94921875 208.7109375 C-28.43504574 209.72947107 -30.44994303 209.69539624 -33.125 209.625 C-34.01703125 209.60695312 -34.9090625 209.58890625 -35.828125 209.5703125 C-36.50359375 209.54710937 -37.1790625 209.52390625 -37.875 209.5 C-35.17073415 207.6971561 -32.45464916 206.29329711 -29.53222656 204.88745117 C-16.29341783 198.48869362 -5.42348177 190.66350068 5.125 180.5 C5.77082031 179.91734375 6.41664063 179.3346875 7.08203125 178.734375 C24.78315644 162.31834321 38.13351944 133.30062237 39.41040039 109.3359375 C39.53631982 105.66123023 39.54727988 101.99066922 39.51611328 98.31420898 C39.50003633 96.06757707 39.51605728 93.82274968 39.53515625 91.57617188 C39.57723188 63.86311364 28.78072344 38.59439953 11.125 17.5 C10.49207031 16.70335937 9.85914063 15.90671875 9.20703125 15.0859375 C3.4387232 8.12461051 -3.6222012 2.81476971 -10.875 -2.5 C-11.73609375 -3.139375 -12.5971875 -3.77875 -13.484375 -4.4375 C-38.36191315 -21.55071096 -71.56713314 -27.40016541 -101.1484375 -22.81640625 C-105.47672517 -21.98303773 -109.67846443 -20.84133976 -113.875 -19.5 C-114.5541748 -19.28569336 -115.23334961 -19.07138672 -115.93310547 -18.85058594 C-131.01426301 -13.94608642 -144.65691517 -6.64149334 -156.875 3.5 C-157.40335449 3.93795898 -157.93170898 4.37591797 -158.47607422 4.82714844 C-181.0012757 23.7753292 -195.8829833 51.77059481 -199.5 81 C-200.55281008 93.32744899 -200.08680179 105.32804619 -197.875 117.5 C-197.70355469 118.593125 -197.53210938 119.68625 -197.35546875 120.8125 C-193.83486687 140.4370163 -183.8081274 159.4902119 -170.875 174.5 C-170.32328125 175.18449219 -169.7715625 175.86898437 -169.203125 176.57421875 C-158.44282805 189.61467386 -142.94677036 199.72799875 -127.484375 206.34375 C-124.875 207.5 -124.875 207.5 -121.875 209.5 C-135.34002371 211.10865328 -145.98937153 202.69509645 -156.16552734 194.86181641 C-181.47903807 174.69632614 -199.901505 145.89189168 -203.64794922 113.27734375 C-204.96406516 97.17827389 -205.31021895 80.14086682 -200.875 64.5 C-200.58496094 63.45126709 -200.58496094 63.45126709 -200.2890625 62.38134766 C-191.76785579 32.26124895 -172.91555374 7.61057968 -146.875 -9.5 C-146.04742187 -10.06203125 -145.21984375 -10.6240625 -144.3671875 -11.203125 C-100.87047413 -39.21795734 -38.99025382 -32.98338406 0 0 Z " fill="#EAF3F7" transform="translate(239.875,29.5)"/>
<path d="M0 0 C5.92571594 0.03171857 11.85145754 0.05738218 17.77720135 0.08322597 C29.45882409 0.1343566 41.14041317 0.19092341 52.82199168 0.25127149 C64.12145777 0.30963307 75.42093232 0.36520844 86.72042918 0.41728711 C87.42531988 0.42053683 88.13021057 0.42378655 88.85646159 0.42713474 C92.3951964 0.44343282 95.93393145 0.45967876 99.47266662 0.47589886 C128.50036317 0.6090164 157.52801117 0.75120341 186.55563426 0.89946485 C186.55563426 2.54946485 186.55563426 4.19946485 186.55563426 5.89946485 C88.21563426 5.89946485 -10.12436574 5.89946485 -111.44436574 5.89946485 C-111.44436574 4.24946485 -111.44436574 2.59946485 -111.44436574 0.89946485 C-74.2866234 0.08617618 -37.16653816 -0.20685913 0 0 Z " fill="#1F2023" transform="translate(111.44436573982239,273.10053515434265)"/>
<path d="M0 0 C2.3569916 9.58509917 2.61683071 19.17876611 3 29 C1.28103516 29.36351562 1.28103516 29.36351562 -0.47265625 29.734375 C-2.00273887 30.07230736 -3.53267941 30.41088344 -5.0625 30.75 C-6.19075195 30.98589844 -6.19075195 30.98589844 -7.34179688 31.2265625 C-12.55610634 32.40034645 -16.43636395 34.23275062 -21 37 C-21.66 37 -22.32 37 -23 37 C-23.17363959 32.81929297 -23.30032743 28.64051705 -23.38452148 24.45727539 C-23.41962856 23.03600496 -23.4673303 21.61498568 -23.52807617 20.19458008 C-24.02022258 8.38720191 -24.02022258 8.38720191 -21.50952148 4.97338867 C-19.6484375 3.625 -19.6484375 3.625 -16 2 C-15.071875 1.566875 -14.14375 1.13375 -13.1875 0.6875 C-8.7719561 -0.26487221 -4.49821959 -0.16001572 0 0 Z " fill="#F8FBFC" transform="translate(185,157)"/>
<path d="M0 0 C7.26920767 -0.54632876 12.66117964 0.31263173 19 4 C19.69335449 4.37769531 20.38670898 4.75539062 21.10107422 5.14453125 C23 7 23 7 23.45410156 10.09448242 C23.42268066 11.95617065 23.42268066 11.95617065 23.390625 13.85546875 C23.38496521 14.51710526 23.37930542 15.17874176 23.37347412 15.86042786 C23.35111247 17.97019332 23.30092371 20.07824952 23.25 22.1875 C23.2299344 23.61911606 23.21168372 25.0507588 23.1953125 26.48242188 C23.15125069 29.98883515 23.08222777 33.49425072 23 37 C22.29512451 36.66009033 21.59024902 36.32018066 20.86401367 35.9699707 C15.35047578 33.37588637 10.2993139 31.31373232 4.3125 30.1875 C3.11238281 29.95417969 1.91226563 29.72085938 0.67578125 29.48046875 C-0.64873047 29.24263672 -0.64873047 29.24263672 -2 29 C-2.22867275 19.10355133 -1.87387655 9.77092772 0 0 Z " fill="#FAFCFD" transform="translate(137,157)"/>
<path d="M0 0 C1.32 0 2.64 0 4 0 C1.28129439 19.71061567 -16.134306 38.98092826 -31 51 C-27.01901862 55.24638014 -22.6062051 58.75985239 -18.01171875 62.328125 C-17.34785156 62.87984375 -16.68398438 63.4315625 -16 64 C-16 64.33 -16 64.66 -16 65 C-21.78408559 65.0494009 -27.56804864 65.08572 -33.35229492 65.10986328 C-35.32041564 65.11992707 -37.28852138 65.13357934 -39.2565918 65.15087891 C-42.08385918 65.17511059 -44.91092905 65.18647923 -47.73828125 65.1953125 C-48.61962234 65.20563507 -49.50096344 65.21595764 -50.40901184 65.22659302 C-51.22963608 65.22674408 -52.05026031 65.22689514 -52.89575195 65.22705078 C-53.61745071 65.231492 -54.33914948 65.23593323 -55.0827179 65.24050903 C-57 65 -57 65 -60 63 C-59.20078125 62.59910156 -58.4015625 62.19820312 -57.578125 61.78515625 C-31.86550407 48.4761588 -11.01440429 26.9508705 0 0 Z " fill="#2277B9" transform="translate(274,174)"/>
<path d="M0 0 C2.05078125 0.03255208 4.1015625 0.06510417 6.15234375 0.09765625 C7.86523336 5.04423241 9.57412801 9.99216329 11.27929688 14.94140625 C11.86022453 16.62570656 12.44225183 18.30962801 13.02539062 19.99316406 C13.86225533 22.40982437 14.69518628 24.82780915 15.52734375 27.24609375 C15.7898291 28.00135345 16.05231445 28.75661316 16.32275391 29.53475952 C18.15234375 34.86991284 18.15234375 34.86991284 18.15234375 37.09765625 C15.51234375 37.09765625 12.87234375 37.09765625 10.15234375 37.09765625 C9.49234375 34.45765625 8.83234375 31.81765625 8.15234375 29.09765625 C3.86234375 29.09765625 -0.42765625 29.09765625 -4.84765625 29.09765625 C-5.17765625 31.73765625 -5.50765625 34.37765625 -5.84765625 37.09765625 C-8.48765625 37.09765625 -11.12765625 37.09765625 -13.84765625 37.09765625 C-13.26979286 32.17247009 -12.22460686 27.78616961 -10.59765625 23.10546875 C-10.37948242 22.47405975 -10.16130859 21.84265076 -9.93652344 21.19210815 C-9.47890851 19.87182117 -9.01826114 18.55258159 -8.5546875 17.234375 C-7.84302363 15.20947503 -7.14150705 13.18126717 -6.44140625 11.15234375 C-2.61207756 0.13805907 -2.61207756 0.13805907 0 0 Z " fill="#EC3480" transform="translate(156.84765625,108.90234375)"/>
<path d="M0 0 C2.60672796 3.25840995 4.51955173 6.707814 6.5 10.375 C18.72687866 32.26440488 37.1195878 48.2560906 59 60 C59 60.66 59 61.32 59 62 C44.81 62 30.62 62 16 62 C19.41153815 58.58846185 22.56374237 55.63652267 26.3125 52.6875 C27.19550781 51.99011719 28.07851562 51.29273438 28.98828125 50.57421875 C29.98408203 49.79498047 29.98408203 49.79498047 31 49 C30.34 48.34 29.68 47.68 29 47 C28.53722656 46.53207031 28.07445313 46.06414062 27.59765625 45.58203125 C26.5217789 44.51667593 25.42461068 43.47244905 24.30859375 42.44921875 C14.14720116 32.88181153 3.86768925 19.74126808 -2 7 C-1.76171875 4.828125 -1.76171875 4.828125 -1 3 C-0.67 2.01 -0.34 1.02 0 0 Z " fill="#2076B9" transform="translate(46,177)"/>
<path d="M0 0 C3.62416013 1.72147606 4.35123149 4.21633744 5.796875 7.84765625 C6.65472979 10.70240636 6.56450912 13.22008054 6.5 16.1875 C7.20097276 17.82520814 7.90586838 19.4613834 8.63354492 21.08740234 C10.28730427 25.09575341 11.41494081 29.27830158 12.625 33.4375 C13.14814142 35.2136289 13.67156655 36.98967427 14.1953125 38.765625 C14.42234863 39.54325195 14.64938477 40.32087891 14.88330078 41.12207031 C15.39038281 42.82037354 15.93952109 44.50606328 16.5 46.1875 C16.61792999 47.83029217 16.67511674 49.47802694 16.6875 51.125 C16.70876953 52.40697266 16.70876953 52.40697266 16.73046875 53.71484375 C16.48520008 56.34628562 15.73102555 57.88249081 14.5 60.1875 C8.51873443 53.55637342 5.63154849 47.13407249 3.125 38.625 C2.61259766 36.99788086 2.61259766 36.99788086 2.08984375 35.33789062 C0.32969979 29.60872638 -0.99311341 24.16152058 -1.5 18.1875 C-2.16 18.1875 -2.82 18.1875 -3.5 18.1875 C-4.74200752 12.8697785 -5.80834212 7.60548672 -6.5 2.1875 C-4.25110485 0.77152898 -2.66461517 0.19984614 0 0 Z " fill="#7BB0D4" transform="translate(97.5,113.8125)"/>
<path d="M0 0 C3.3 0 6.6 0 10 0 C10 24.75 10 49.5 10 75 C9.67 75 9.34 75 9 75 C9 50.91 9 26.82 9 2 C8.01 2 7.02 2 6 2 C6 26.09 6 50.18 6 75 C4.02 75 2.04 75 0 75 C0 50.25 0 25.5 0 0 Z " fill="#6A6A6A" transform="translate(211,100)"/>
<path d="M0 0 C3.09637793 1.64252306 5.23828843 2.85844078 6.3984375 6.26953125 C6.6796875 8.46875 6.6796875 8.46875 6.6796875 12.15625 C4.3696875 12.15625 2.0596875 12.15625 -0.3203125 12.15625 C-0.6090625 11.351875 -0.8978125 10.5475 -1.1953125 9.71875 C-2.05293818 7.0236032 -2.05293818 7.0236032 -4.3203125 6.15625 C-7.27819819 5.7394948 -7.27819819 5.7394948 -10.3203125 6.15625 C-13.05479618 8.64738384 -13.32362069 10.18738588 -13.71875 13.90625 C-13.7266791 15.32291602 -13.71840761 16.73975005 -13.6953125 18.15625 C-13.70691406 18.8678125 -13.71851563 19.579375 -13.73046875 20.3125 C-13.71275679 23.47703599 -13.49801796 25.81479781 -12.02734375 28.640625 C-10.23927179 30.53949744 -10.23927179 30.53949744 -6.6328125 30.40625 C-5.5396875 30.32375 -4.4465625 30.24125 -3.3203125 30.15625 C-2.3303125 28.17625 -1.3403125 26.19625 -0.3203125 24.15625 C1.9896875 24.15625 4.2996875 24.15625 6.6796875 24.15625 C6.31126645 31.52467105 6.31126645 31.52467105 3.2421875 34.59375 C-1.91181804 37.73643631 -6.34155003 37.76425974 -12.3203125 37.15625 C-16.87574973 34.95987848 -19.21888188 32.71833015 -21.3203125 28.15625 C-21.78014501 24.83676443 -21.78462624 21.56559279 -21.7578125 18.21875 C-21.77779297 17.33767578 -21.79777344 16.45660156 -21.81835938 15.54882812 C-21.81414453 9.92200738 -21.12606731 6.58009273 -17.3203125 2.15625 C-11.9539764 -1.58770542 -6.12040816 -2.22560297 0 0 Z " fill="#EC347F" transform="translate(166.3203125,57.84375)"/>
<path d="M0 0 C12.21 0 24.42 0 37 0 C37 11.55 37 23.1 37 35 C36.34 35 35.68 35 35 35 C34.505 35.99 34.505 35.99 34 37 C32.42960995 32.33818932 30.86312992 27.67509043 29.30029297 23.01074219 C28.76784386 21.42346559 28.23431935 19.83654931 27.69970703 18.25 C26.93240311 15.97228892 26.16894888 13.69331907 25.40625 11.4140625 C25.04533264 10.34679428 25.04533264 10.34679428 24.67712402 9.25796509 C23 4.22774341 23 4.22774341 23 2 C15.74 1.67 8.48 1.34 1 1 C1 12.22 1 23.44 1 35 C0.67 35 0.34 35 0 35 C0 23.45 0 11.9 0 0 Z " fill="#EFF2F7" transform="translate(140,107)"/>
<path d="M0 0 C2.31900199 0.94868263 4.51932676 1.99059779 6.75 3.125 C6.5334375 4.14207031 6.5334375 4.14207031 6.3125 5.1796875 C3.88797883 16.38715478 3.88797883 16.38715478 6.25 27.25 C6.745 27.86875 7.24 28.4875 7.75 29.125 C-0.88418687 26.01542996 -11.57160284 19.48461445 -17.25 12.125 C-17.25 8.6875 -17.25 8.6875 -16.25 6.125 C-13.775 7.115 -13.775 7.115 -11.25 8.125 C-10.74210937 7.53589844 -10.23421875 6.94679687 -9.7109375 6.33984375 C-4.04649891 0.15563457 -4.04649891 0.15563457 0 0 Z " fill="#1F78BC" transform="translate(96.25,202.875)"/>
<path d="M0 0 C4.875 2.75 4.875 2.75 6 5 C7.60656178 28.2289932 3.95046128 50.57758447 -5 72 C-5.33 71.01 -5.66 70.02 -6 69 C-5.505 68.01 -5.505 68.01 -5 67 C-6.485 67.495 -6.485 67.495 -8 68 C-7.40169961 63.87905341 -6.4575015 60.12819242 -5.125 56.1875 C0.6015528 37.46125433 0.34554419 19.36287869 0 0 Z " fill="#2073B4" transform="translate(283,107)"/>
<path d="M0 0 C0.33 0 0.66 0 1 0 C1 25.08 1 50.16 1 76 C-2.63 76 -6.26 76 -10 76 C-10 75.67 -10 75.34 -10 75 C-8.02 75 -6.04 75 -4 75 C-4 50.91 -4 26.82 -4 2 C-3.01 2 -2.02 2 -1 2 C-0.67 1.34 -0.34 0.68 0 0 Z " fill="#C0C0C0" transform="translate(221,100)"/>
<path d="M0 0 C6.0546875 -0.1953125 6.0546875 -0.1953125 8 0 C8.66 0.66 9.32 1.32 10 2 C7.36 2 4.72 2 2 2 C2.0309375 3.0621875 2.061875 4.124375 2.09375 5.21875 C2.09375 11.03582089 1.26441823 16.74276003 0.5 22.5 C0.28537109 24.16289062 0.28537109 24.16289062 0.06640625 25.859375 C-0.28456278 28.57353546 -0.64013917 31.28700665 -1 34 C-1.66 34 -2.32 34 -3 34 C-3 34.99 -3 35.98 -3 37 C-2.34 37 -1.68 37 -1 37 C-1 37.66 -1 38.32 -1 39 C-2.65 39 -4.3 39 -6 39 C-6 39.99 -6 40.98 -6 42 C1.26 42 8.52 42 16 42 C16 42.33 16 42.66 16 43 C8.41 43 0.82 43 -7 43 C-7.26315789 13.52631579 -7.26315789 13.52631579 -5 9 C-4.34 9 -3.68 9 -3 9 C-3 7.68 -3 6.36 -3 5 C-2.01 5 -1.02 5 0 5 C0 3.35 0 1.7 0 0 Z " fill="#1E77BC" transform="translate(135,154)"/>
<path d="M0 0 C6.07542995 3.77661862 11.62645792 8.28619885 17 13 C17 13.33 17 13.66 17 14 C5.45 14 -6.1 14 -18 14 C-15.02991104 11.02991104 -11.89681841 8.77035169 -8.4375 6.4375 C-4.00676572 3.48735566 -4.00676572 3.48735566 0 0 Z " fill="#065D8D" transform="translate(241,225)"/>
<path d="M0 0 C2.625 1.625 2.625 1.625 4 4 C4.55802097 7.90614682 4.58392818 10.05111671 2.5 13.4375 C-0.99835964 15.62397478 -4.04897923 15.7190555 -8 15 C-11.5 13.5625 -11.5 13.5625 -14 11 C-14.73080086 7.88566404 -14.87564319 5.08749516 -14 2 C-9.86561029 -2.26534323 -5.37901672 -1.29561034 0 0 Z " fill="#E2EEF4" transform="translate(267,142)"/>
<path d="M0 0 C0.44988281 0.35191406 0.89976563 0.70382813 1.36328125 1.06640625 C6.35095993 4.89462455 11.52102124 8.28671552 16.875 11.58203125 C17.57625 12.04996094 18.2775 12.51789063 19 13 C19 13.33 19 13.66 19 14 C7.45 14 -4.1 14 -16 14 C-12.45235012 10.45235012 -9.0631491 7.31603602 -5.1875 4.1875 C-4.21167969 3.39730469 -3.23585938 2.60710937 -2.23046875 1.79296875 C-1.49441406 1.20128906 -0.75835937 0.60960937 0 0 Z " fill="#065D8D" transform="translate(78,225)"/>
<path d="M0 0 C8.36628849 7.05024311 8.36628849 7.05024311 11 10 C11 10.66 11 11.32 11 12 C11.66 12 12.32 12 13 12 C11.49069838 16.22604452 8.91084747 17.96936766 5 20 C1.59909229 20.21255673 -0.10598051 19.73201596 -2.74609375 17.5703125 C-5.5286697 14.67848991 -6.94291959 12.95134013 -7.1875 8.875 C-5.74069019 5.37219729 -3.83344105 3.47926092 -1 1 C-0.67 0.67 -0.34 0.34 0 0 Z " fill="#E9F3F7" transform="translate(229,193)"/>
<path d="M0 0 C5.75 3.75 5.75 3.75 8 6 C8.60078163 10.46294928 8.30642299 12.49858057 5.9375 16.375 C2.38190741 19.55233806 0.75612701 20.24600657 -4 20 C-6.66340142 18.57744252 -8.66082892 16.9572656 -11 15 C-9.3718356 11.24269753 -6.98598083 8.383177 -4.375 5.25 C-3.55773437 4.26515625 -2.74046875 3.2803125 -1.8984375 2.265625 C-1.27195313 1.51796875 -0.64546875 0.7703125 0 0 Z " fill="#E6F0F5" transform="translate(226,36)"/>
<path d="M0 0 C4.48517925 0.89703585 6.86072554 4.22793058 9.8125 7.5625 C6.00774578 12.12280824 2.06280379 16.41339392 -2.1875 20.5625 C-5.98701706 19.06983258 -8.0229862 17.00968865 -10.1875 13.5625 C-10.1875 10.875 -10.1875 10.875 -9.1875 8.5625 C-7.87102881 7.86312468 -6.53727849 7.19520867 -5.1875 6.5625 C-4.52570153 4.58204441 -4.52570153 4.58204441 -4.1875 2.5625 C-2.1875 0.5625 -2.1875 0.5625 0 0 Z " fill="#F1F7F8" transform="translate(87.1875,191.4375)"/>
<path d="M0 0 C0.99 0.99 1.98 1.98 3 3 C1.01266924 7.36055099 -1.83823817 10.42583445 -5 14 C1.435 13.505 1.435 13.505 8 13 C8.66 14.32 9.32 15.64 10 17 C7.73354942 18.34130761 5.46239903 19.67316234 3.1875 21 C2.54490234 21.3815625 1.90230469 21.763125 1.24023438 22.15625 C-3.66015625 25 -3.66015625 25 -7 25 C-6.875 23.1875 -6.875 23.1875 -6 21 C-2.9375 19.25 -2.9375 19.25 0 18 C-4.95 18.495 -4.95 18.495 -10 19 C-10.33 18.01 -10.66 17.02 -11 16 C-9.56640625 13.95703125 -9.56640625 13.95703125 -7.5625 11.8125 C-6.90378906 11.09707031 -6.24507812 10.38164063 -5.56640625 9.64453125 C-4.79103516 8.83048828 -4.79103516 8.83048828 -4 8 C-4.54269531 8.30035156 -5.08539063 8.60070312 -5.64453125 8.91015625 C-6.35996094 9.29042969 -7.07539063 9.67070313 -7.8125 10.0625 C-8.52019531 10.44535156 -9.22789062 10.82820313 -9.95703125 11.22265625 C-12 12 -12 12 -15 11 C-13.59980125 6.79940376 -10.63174123 5.80948475 -6.9375 3.8125 C-6.27427734 3.44447266 -5.61105469 3.07644531 -4.92773438 2.69726562 C-3.28972543 1.78987938 -1.64543779 0.89384427 0 0 Z " fill="#E4EFF4" transform="translate(253,63)"/>
<path d="M0 0 C1.32 0 2.64 0 4 0 C4 23.76 4 47.52 4 72 C2.68 71.67 1.36 71.34 0 71 C0.66 71 1.32 71 2 71 C2 69.68 2 68.36 2 67 C1.34 66.67 0.68 66.34 0 66 C0.66 66 1.32 66 2 66 C2 64.02 2 62.04 2 60 C1.34 59.67 0.68 59.34 0 59 C0 56.69 0 54.38 0 52 C0.66 52 1.32 52 2 52 C2 50.68 2 49.36 2 48 C1.34 47.67 0.68 47.34 0 47 C0 46.34 0 45.68 0 45 C0.66 45 1.32 45 2 45 C2 44.34 2 43.68 2 43 C1.34 42.67 0.68 42.34 0 42 C0 40.68 0 39.36 0 38 C0.99 37.505 0.99 37.505 2 37 C1.34 36.34 0.68 35.68 0 35 C0 34.34 0 33.68 0 33 C0.66 33 1.32 33 2 33 C2 31.68 2 30.36 2 29 C1.34 28.67 0.68 28.34 0 28 C0 27.34 0 26.68 0 26 C0.66 26 1.32 26 2 26 C2.16687448 23.58354218 2.16687448 23.58354218 2 21 C1.34 20.34 0.68 19.68 0 19 C-0.22705078 17.02880859 -0.22705078 17.02880859 -0.1953125 14.6484375 C-0.18886719 13.79765625 -0.18242187 12.946875 -0.17578125 12.0703125 C-0.15902344 11.18085937 -0.14226562 10.29140625 -0.125 9.375 C-0.11597656 8.4778125 -0.10695312 7.580625 -0.09765625 6.65625 C-0.0740497 4.43723414 -0.0411231 2.21874923 0 0 Z " fill="#B0B0B0" transform="translate(212,102)"/>
<path d="M0 0 C2.55100201 2.55100201 2.94232144 4.63962562 3.9453125 8.1015625 C4.29980469 9.31328125 4.65429688 10.525 5.01953125 11.7734375 C5.38816084 13.05725147 5.7566486 14.34110618 6.125 15.625 C6.50070787 16.91683963 6.87700296 18.20850863 7.25390625 19.5 C8.17507238 22.66503235 9.09016365 25.83169567 10 29 C9.84660156 27.92621094 9.69320312 26.85242188 9.53515625 25.74609375 C9.0234375 22.1640625 8.51171875 18.58203125 8 15 C8.66 15.66 9.32 16.32 10 17 C10.66 16.34 11.32 15.68 12 15 C14.49713091 21.986021 17.16959983 30.12879118 13.98046875 37.2890625 C13.65691406 37.85367188 13.33335938 38.41828125 13 39 C7.20575103 33.45231481 4.54217976 26.93943277 2 19.5 C1.52808228 18.16545776 1.52808228 18.16545776 1.04663086 16.80395508 C-0.92414031 10.73035083 -1.12484849 6.28892566 0 0 Z " fill="#76ADD2" transform="translate(99,135)"/>
<path d="M0 0 C0.7425 0.2475 1.485 0.495 2.25 0.75 C2.58 1.74 2.91 2.73 3.25 3.75 C4.1575 3.564375 5.065 3.37875 6 3.1875 C8.93314324 2.79265379 10.5144657 2.80308428 13.25 3.75 C12.92 4.74 12.59 5.73 12.25 6.75 C9.61 6.75 6.97 6.75 4.25 6.75 C3.92 8.4 3.59 10.05 3.25 11.75 C5.56 12.08 7.87 12.41 10.25 12.75 C9.92 14.07 9.59 15.39 9.25 16.75 C3.32136283 15.58348574 -2.13798394 13.99480642 -7.75 11.75 C-7.2671504 4.50725594 -7.2671504 4.50725594 -5 1.1875 C-2.75 -0.25 -2.75 -0.25 0 0 Z " fill="#DFEDF3" transform="translate(58.75,87.25)"/>
<path d="M0 0 C0.33 1.32 0.66 2.64 1 4 C2.9490625 4.1546875 2.9490625 4.1546875 4.9375 4.3125 C10.56228887 4.93549877 16.88704561 5.88704561 21 10 C20.34 10 19.68 10 19 10 C18.34 11.32 17.68 12.64 17 14 C9.74 14 2.48 14 -5 14 C-5 13.01 -5 12.02 -5 11 C-3.35 11 -1.7 11 0 11 C0 10.34 0 9.68 0 9 C-0.66 9 -1.32 9 -2 9 C-2 8.01 -2 7.02 -2 6 C-1.34 6 -0.68 6 0 6 C0 4.02 0 2.04 0 0 Z " fill="#5F9FCD" transform="translate(134,182)"/>
<path d="M0 0 C1.47656563 2.76856055 0.5752481 4.87092659 0 7.875 C0.66 8.535 1.32 9.195 2 9.875 C2.71408334 11.85856483 3.38617742 13.85815437 4 15.875 C2.35 15.875 0.7 15.875 -1 15.875 C-1.33 13.895 -1.66 11.915 -2 9.875 C-3.98 9.875 -5.96 9.875 -8 9.875 C-7.67 12.515 -7.34 15.155 -7 17.875 C-7.99 17.875 -8.98 17.875 -10 17.875 C-10.50690584 15.81418639 -11.00524619 13.75126474 -11.5 11.6875 C-11.7784375 10.53894531 -12.056875 9.39039063 -12.34375 8.20703125 C-12.91495385 5.30681171 -13.13283779 2.81403615 -13 -0.125 C-8.76381564 -1.480579 -3.99083657 -2.24484557 0 0 Z " fill="#EEF5F8" transform="translate(148,17.125)"/>
<path d="M0 0 C-0.0721875 1.02996094 -0.144375 2.05992188 -0.21875 3.12109375 C-1.07255357 15.94182038 -1.78834937 28.85045583 -0.22265625 41.640625 C0.19660385 46.08331101 0.07627018 50.54243181 0 55 C-3 53 -3 53 -3.72167969 50.71142578 C-5.01549928 42.40263421 -5.30055963 34.27632507 -5.25 25.875 C-5.25773437 24.58207031 -5.26546875 23.28914063 -5.2734375 21.95703125 C-5.24368983 7.33605369 -5.24368983 7.33605369 -3 1 C-1 0 -1 0 0 0 Z " fill="#F4F9FA" transform="translate(41,99)"/>
<path d="M0 0 C2 2 2 2 2.125 4.625 C2.08375 5.40875 2.0425 6.1925 2 7 C2.763125 7.0825 3.52625 7.165 4.3125 7.25 C7.52373261 8.14615794 8.29374499 9.21611025 10 12 C8.02 12.99 8.02 12.99 6 14 C5.34 13.01 4.68 12.02 4 11 C0.91634129 10.7497843 0.91634129 10.7497843 -2 11 C-0.68 13.31 0.64 15.62 2 18 C1.01 18.66 0.02 19.32 -1 20 C-2.6756417 17.90245565 -4.34050194 15.79775361 -6 13.6875 C-6.47695312 13.09259766 -6.95390625 12.49769531 -7.4453125 11.88476562 C-11 7.33984375 -11 7.33984375 -11 4 C-7.39197892 1.06323866 -4.72531547 -0.78755258 0 0 Z " fill="#EAF3F6" transform="translate(98,36)"/>
<path d="M0 0 C5.94 0 11.88 0 18 0 C18 1.32 18 2.64 18 4 C15.36 4 12.72 4 10 4 C10 6.31 10 8.62 10 11 C12.64 11 15.28 11 18 11 C18 12.32 18 13.64 18 15 C12.06 15 6.12 15 0 15 C0 13.68 0 12.36 0 11 C2.31 11 4.62 11 7 11 C7 8.69 7 6.38 7 4 C4.69 4 2.38 4 0 4 C0 2.68 0 1.36 0 0 Z " fill="#E9F3F7" transform="translate(47,122)"/>
<path d="M0 0 C4.62 0 9.24 0 14 0 C14.66 1.32 15.32 2.64 16 4 C15.01 4 14.02 4 13 4 C13 3.34 13 2.68 13 2 C12.34 2 11.68 2 11 2 C12.65 3.65 14.3 5.3 16 7 C15.375 8.9375 15.375 8.9375 14 11 C9.18682557 12.48979209 4.87933963 11.75713891 0 11 C0 7.37 0 3.74 0 0 Z " fill="#428EC9" transform="translate(227,253)"/>
<path d="M0 0 C2.60704898 2.60704898 2.23905333 4.47338241 2.265625 8.02734375 C2 10 2 10 0 13 C-4.05421706 14.75068464 -7.59982765 15.57393552 -12 15 C-14.375 13.5 -14.375 13.5 -16 11 C-16.32638734 8.24150058 -16.18634339 5.79515088 -16 3 C-14.68 2.34 -13.36 1.68 -12 1 C-11.67 2.32 -11.34 3.64 -11 5 C-11.66 5 -12.32 5 -13 5 C-12.67 6.65 -12.34 8.3 -12 10 C-8.7 9.67 -5.4 9.34 -2 9 C-1.67 7.02 -1.34 5.04 -1 3 C-2.32 3 -3.64 3 -5 3 C-5 4.32 -5 5.64 -5 7 C-5.99 7 -6.98 7 -8 7 C-8.33 4.69 -8.66 2.38 -9 0 C-5.67778618 -1.10740461 -3.35896892 -0.97233311 0 0 Z " fill="#E5F0F5" transform="translate(65,142)"/>
<path d="M0 0 C1.32 0.33 2.64 0.66 4 1 C4 2.65 4 4.3 4 6 C5.66666667 6.33333333 7.33333333 6.66666667 9 7 C10.66666667 7.33333333 12.33333333 7.66666667 14 8 C12.35608965 9.69528255 10.69368403 11.35505508 9 13 C8.02353516 13.95326172 8.02353516 13.95326172 7.02734375 14.92578125 C6.33769531 15.56902344 5.64804688 16.21226562 4.9375 16.875 C4.28652344 17.49117187 3.63554688 18.10734375 2.96484375 18.7421875 C1 20 1 20 -1.24609375 19.6953125 C-1.82488281 19.46585938 -2.40367188 19.23640625 -3 19 C-3.45510807 12.32508169 -1.7672426 6.40625443 0 0 Z " fill="#F5F9FA" transform="translate(103,205)"/>
<path d="M0 0 C0.51046875 0.23589844 1.0209375 0.47179687 1.546875 0.71484375 C1.546875 1.37484375 1.546875 2.03484375 1.546875 2.71484375 C-0.433125 3.70484375 -2.413125 4.69484375 -4.453125 5.71484375 C-3.793125 7.69484375 -3.133125 9.67484375 -2.453125 11.71484375 C-1.03 10.97234375 -1.03 10.97234375 0.421875 10.21484375 C3.546875 8.71484375 3.546875 8.71484375 5.546875 8.71484375 C5.876875 10.03484375 6.206875 11.35484375 6.546875 12.71484375 C4.27960167 13.88891396 2.00852876 15.05424114 -0.265625 16.21484375 C-0.90822266 16.54871094 -1.55082031 16.88257813 -2.21289062 17.2265625 C-5.14860199 18.71723459 -7.11439017 19.71484375 -10.453125 19.71484375 C-10.05508939 16.82908556 -9.66303431 15.89294862 -7.390625 13.96484375 C-6.75125 13.55234375 -6.111875 13.13984375 -5.453125 12.71484375 C-6.113125 11.06484375 -6.773125 9.41484375 -7.453125 7.71484375 C-8.401875 8.20984375 -9.350625 8.70484375 -10.328125 9.21484375 C-13.453125 10.71484375 -13.453125 10.71484375 -15.453125 10.71484375 C-15.783125 9.39484375 -16.113125 8.07484375 -16.453125 6.71484375 C-14.21005472 5.51234217 -11.9602459 4.32792755 -9.703125 3.15234375 C-8.75179687 2.63897461 -8.75179687 2.63897461 -7.78125 2.11523438 C-3.00217062 -0.34897843 -3.00217062 -0.34897843 0 0 Z " fill="#E9F2F7" transform="translate(72.453125,166.28515625)"/>
<path d="M0 0 C0.54398438 0.26167969 1.08796875 0.52335937 1.6484375 0.79296875 C0.91153637 7.27769868 -0.70475001 13.48536618 -2.3515625 19.79296875 C-3.3415625 19.46296875 -4.3315625 19.13296875 -5.3515625 18.79296875 C-5.3515625 17.14296875 -5.3515625 15.49296875 -5.3515625 13.79296875 C-7.70523963 13.10514515 -7.70523963 13.10514515 -10.3515625 12.79296875 C-11.3415625 13.45296875 -12.3315625 14.11296875 -13.3515625 14.79296875 C-14.0115625 14.46296875 -14.6715625 14.13296875 -15.3515625 13.79296875 C-13.75718911 9.78827795 -11.10653159 7.37967604 -7.9765625 4.48046875 C-6.54183594 3.12501953 -6.54183594 3.12501953 -5.078125 1.7421875 C-2.3515625 -0.20703125 -2.3515625 -0.20703125 0 0 Z " fill="#ECF4F8" transform="translate(215.3515625,28.20703125)"/>
<path d="M0 0 C1.32 0 2.64 0 4 0 C4.50333542 2.60356241 5.00279378 5.20776651 5.5 7.8125 C5.64308594 8.55048828 5.78617188 9.28847656 5.93359375 10.04882812 C6.50926281 13.07794391 7 15.909196 7 19 C5.68 19 4.36 19 3 19 C3 17.35 3 15.7 3 14 C0.69 14 -1.62 14 -4 14 C-4 14.99 -4 15.98 -4 17 C-5.32 17 -6.64 17 -8 17 C-7.27902098 13.2779458 -5.70707707 10.18151508 -4 6.8125 C-3.46375 5.74644531 -2.9275 4.68039063 -2.375 3.58203125 C-1 1 -1 1 0 0 Z " fill="#F0F6F8" transform="translate(176,16)"/>
<path d="M0 0 C2.5625 0.25 2.5625 0.25 5 1 C5.33 1.66 5.66 2.32 6 3 C6.598125 2.484375 7.19625 1.96875 7.8125 1.4375 C8.8953125 0.7259375 8.8953125 0.7259375 10 0 C10.99 0.33 11.98 0.66 13 1 C14.52160014 4.6037898 15 7.05220686 15 11 C14.34 11 13.68 11 13 11 C13 10.34 13 9.68 13 9 C11.68 9 10.36 9 9 9 C9 9.66 9 10.32 9 11 C7.35425434 11.02688151 5.70838587 11.04634123 4.0625 11.0625 C3.14597656 11.07410156 2.22945313 11.08570313 1.28515625 11.09765625 C-1 11 -1 11 -2 10 C-2.27314815 4.26388889 -2.27314815 4.26388889 -2 2 C-1.34 1.34 -0.68 0.68 0 0 Z " fill="#3175C7" transform="translate(102,253)"/>
<path d="M0 0 C3.06098195 3.06098195 3.82645413 4.69822763 5.1875 8.6875 C5.53167969 9.68136719 5.87585938 10.67523438 6.23046875 11.69921875 C6.48441406 12.45847656 6.73835938 13.21773437 7 14 C6.01 14 5.02 14 4 14 C4 14.66 4 15.32 4 16 C3.34 15.67 2.68 15.34 2 15 C-1.62326739 13.7922442 -2.64146369 14.45688872 -6 16 C-6.33 14.35 -6.66 12.7 -7 11 C-5.35 10.34 -3.7 9.68 -2 9 C-2.33 8.34 -2.66 7.68 -3 7 C-5.31 7.33 -7.62 7.66 -10 8 C-10.33 6.68 -10.66 5.36 -11 4 C-7.37 2.68 -3.74 1.36 0 0 Z " fill="#277CBE" transform="translate(118,26)"/>
<path d="M0 0 C2.625 0.375 2.625 0.375 5 1 C5 1.99 5 2.98 5 4 C5.556875 3.319375 6.11375 2.63875 6.6875 1.9375 C7.8321875 0.9784375 7.8321875 0.9784375 9 0 C11.75 0.25 11.75 0.25 14 1 C14.33 1.99 14.66 2.98 15 4 C12.525 3.01 12.525 3.01 10 2 C10 4.31 10 6.62 10 9 C10.99 9 11.98 9 13 9 C13 8.34 13 7.68 13 7 C13.66 7 14.32 7 15 7 C14.67 8.32 14.34 9.64 14 11 C11.70839681 11.02692484 9.41670454 11.04636124 7.125 11.0625 C5.84882813 11.07410156 4.57265625 11.08570313 3.2578125 11.09765625 C0 11 0 11 -2 10 C-2.1953125 3.9453125 -2.1953125 3.9453125 -2 2 C-1.34 1.34 -0.68 0.68 0 0 Z " fill="#3782C7" transform="translate(210,253)"/>
<path d="M0 0 C0.99 0 1.98 0 3 0 C2.67 2.97 2.34 5.94 2 9 C3.32 9 4.64 9 6 9 C6.33 7.02 6.66 5.04 7 3 C7.99 3 8.98 3 10 3 C9.67 5.31 9.34 7.62 9 10 C10.65 10 12.3 10 14 10 C14.33 7.69 14.66 5.38 15 3 C15.99 3 16.98 3 18 3 C17.85892253 4.45880109 17.71197585 5.91703551 17.5625 7.375 C17.48128906 8.18710938 17.40007812 8.99921875 17.31640625 9.8359375 C17 12 17 12 16 14 C13.93722893 13.85805236 11.87478969 13.71127784 9.8125 13.5625 C8.66394531 13.48128906 7.51539063 13.40007812 6.33203125 13.31640625 C3.48401829 13.04596188 0.78789518 12.62478253 -2 12 C-1.85904936 10.3745692 -1.71207913 8.74965949 -1.5625 7.125 C-1.48128906 6.22007813 -1.40007813 5.31515625 -1.31640625 4.3828125 C-1 2 -1 2 0 0 Z " fill="#E9F2F7" transform="translate(49,104)"/>
<path d="M0 0 C3.44872922 1.31298143 4.81809547 3.7424034 6.90649414 6.72583008 C6.57649414 7.71583008 6.24649414 8.70583008 5.90649414 9.72583008 C4.19899434 8.44520523 2.53275818 7.10815451 0.90649414 5.72583008 C0.90649414 5.06583008 0.90649414 4.40583008 0.90649414 3.72583008 C-0.08350586 4.38583008 -1.07350586 5.04583008 -2.09350586 5.72583008 C-1.76350586 6.30333008 -1.43350586 6.88083008 -1.09350586 7.47583008 C-0.09350586 9.72583008 -0.09350586 9.72583008 -0.09350586 13.72583008 C-2.09350586 13.72583008 -2.09350586 13.72583008 -4.21850586 11.72583008 C-4.83725586 11.06583008 -5.45600586 10.40583008 -6.09350586 9.72583008 C-7.08350586 11.21083008 -7.08350586 11.21083008 -8.09350586 12.72583008 C-6.11350586 15.69583008 -6.11350586 15.69583008 -4.09350586 18.72583008 C-5.41350586 18.72583008 -6.73350586 18.72583008 -8.09350586 18.72583008 C-9.79663086 16.97583008 -9.79663086 16.97583008 -11.34350586 14.72583008 C-11.86428711 13.98333008 -12.38506836 13.24083008 -12.92163086 12.47583008 C-13.30834961 11.89833008 -13.69506836 11.32083008 -14.09350586 10.72583008 C-12.19042757 8.85566667 -10.27327707 7.00558841 -8.34350586 5.16333008 C-7.80467773 4.63030273 -7.26584961 4.09727539 -6.71069336 3.5480957 C-2.59675617 -0.34007664 -2.59675617 -0.34007664 0 0 Z " fill="#E7F1F6" transform="translate(242.093505859375,50.274169921875)"/>
<path d="M0 0 C2.5625 2.0625 2.5625 2.0625 4 5 C3.75 8.8125 3.75 8.8125 3 12 C1.68 12.33 0.36 12.66 -1 13 C-1.33 12.01 -1.66 11.02 -2 10 C-1.34 9.67 -0.68 9.34 0 9 C0 7.68 0 6.36 0 5 C-5.7974423 4.75571657 -5.7974423 4.75571657 -11 7 C-10.73323796 8.98491642 -10.73323796 8.98491642 -10 11 C-9.01 11.33 -8.02 11.66 -7 12 C-7 12.99 -7 13.98 -7 15 C-9.3125 15.3125 -9.3125 15.3125 -12 15 C-14.49043002 12.17751264 -15.02583856 10.64596408 -14.875 6.875 C-13.9841388 3.94788464 -13.43529038 2.77963528 -11 1 C-7.28542819 -0.2381906 -3.8544041 -0.67335975 0 0 Z " fill="#E0EDF4" transform="translate(267,97)"/>
<path d="M0 0 C0 0.99 0 1.98 0 3 C-1.98 3.66 -3.96 4.32 -6 5 C-5.67 6.32 -5.34 7.64 -5 9 C-2.69 8.34 -0.38 7.68 2 7 C2.33 7.99 2.66 8.98 3 10 C1.02 10.99 1.02 10.99 -1 12 C-1 13.65 -1 15.3 -1 17 C-0.2575 16.484375 0.485 15.96875 1.25 15.4375 C4 14 4 14 6.3125 14.3125 C6.869375 14.539375 7.42625 14.76625 8 15 C5.45217026 17.97246802 2.54659117 19.41535288 -1 21 C-1.66 21 -2.32 21 -3 21 C-4.17407021 18.73272667 -5.33939739 16.46165376 -6.5 14.1875 C-6.83386719 13.54490234 -7.16773437 12.90230469 -7.51171875 12.24023438 C-9.00239084 9.30452301 -10 7.33873483 -10 4 C-8.71086513 3.32845067 -7.41859796 2.66291141 -6.125 2 C-5.40570313 1.62875 -4.68640625 1.2575 -3.9453125 0.875 C-2 0 -2 0 0 0 Z " fill="#EAF3F6" transform="translate(113,25)"/>
<path d="M0 0 C4.33304076 0.64465202 7.86672065 2.18925122 11.8125 4.0625 C12.97394531 4.61035156 14.13539062 5.15820312 15.33203125 5.72265625 C16.21246094 6.14417969 17.09289062 6.56570312 18 7 C17.67 7.99 17.34 8.98 17 10 C14.36 10 11.72 10 9 10 C8.67 9.01 8.34 8.02 8 7 C7.01 6.67 6.02 6.34 5 6 C5.33 7.65 5.66 9.3 6 11 C6.66 11 7.32 11 8 11 C8.73080266 12.97746603 9.39421747 14.98072489 10 17 C9.67 17.66 9.34 18.32 9 19 C8.34 19 7.68 19 7 19 C5.63063499 16.59087645 4.27958007 14.17425815 2.9375 11.75 C2.54755859 11.06808594 2.15761719 10.38617188 1.75585938 9.68359375 C1.39169922 9.01972656 1.02753906 8.35585938 0.65234375 7.671875 C0.31195068 7.0644043 -0.02844238 6.45693359 -0.37915039 5.83105469 C-1.15628879 3.53906176 -0.76849965 2.25542675 0 0 Z " fill="#EBF3F7" transform="translate(77,50)"/>
<path d="M0 0 C-1.39195915 2.7839183 -3.15575779 2.97898997 -6 4 C-6 5.32 -6 6.64 -6 8 C-4.02 7.34 -2.04 6.68 0 6 C0.33 6.99 0.66 7.98 1 9 C-0.98 9.33 -2.96 9.66 -5 10 C-4.67 11.65 -4.34 13.3 -4 15 C0.455 14.505 0.455 14.505 5 14 C5 14.66 5 15.32 5 16 C3.75579353 16.5345256 2.50429064 17.05208611 1.25 17.5625 C0.55390625 17.85253906 -0.1421875 18.14257812 -0.859375 18.44140625 C-3.49761245 19.12985143 -4.57349159 19.30275657 -7 18 C-8.13273936 15.64211359 -8.97142521 13.53288354 -9.75 11.0625 C-10.08064453 10.09280273 -10.08064453 10.09280273 -10.41796875 9.10351562 C-12 4.3721613 -12 4.3721613 -12 2 C-10.75579353 1.4654744 -9.50429064 0.94791389 -8.25 0.4375 C-7.55390625 0.14746094 -6.8578125 -0.14257812 -6.140625 -0.44140625 C-3.69987216 -1.07831803 -2.3596345 -0.80248831 0 0 Z " fill="#EEF5F8" transform="translate(130,20)"/>
<path d="M0 0 C2.2890625 1.2421875 2.2890625 1.2421875 4 3 C4.4609375 5.19140625 4.4609375 5.19140625 4.375 7.5625 C4.35566406 8.74005859 4.35566406 8.74005859 4.3359375 9.94140625 C4 12 4 12 2 14 C0.68 14 -0.64 14 -2 14 C-2 13.01 -2 12.02 -2 11 C-1.34 10.67 -0.68 10.34 0 10 C0 8.35 0 6.7 0 5 C-3.3 5 -6.6 5 -10 5 C-10 6.65 -10 8.3 -10 10 C-9.34 10.33 -8.68 10.66 -8 11 C-8 11.99 -8 12.98 -8 14 C-9.32 14 -10.64 14 -12 14 C-14.48038907 10.2794164 -14.46337203 8.40203429 -14 4 C-11.03692144 -1.25273018 -5.4129165 -0.96287457 0 0 Z " fill="#E1EEF3" transform="translate(269,123)"/>
<path d="M0 0 C0.9075 0.103125 1.815 0.20625 2.75 0.3125 C2.42 1.3025 2.09 2.2925 1.75 3.3125 C-0.3125 4 -0.3125 4 -2.25 4.3125 C-2.66780879 6.68555578 -2.66780879 6.68555578 -2.25 9.3125 C-0.12502253 11.33772193 -0.12502253 11.33772193 2.75 12.3125 C5.49239143 12.09920551 5.49239143 12.09920551 7.75 11.3125 C7.564375 10.52875 7.37875 9.745 7.1875 8.9375 C6.75 6.3125 6.75 6.3125 7.75 4.3125 C8.74 4.6425 9.73 4.9725 10.75 5.3125 C11.79335711 9.05119631 12.10871765 10.66680823 10.1875 14.125 C7.75 16.3125 7.75 16.3125 5 17.5 C0.08368241 17.21636629 -2.91986036 14.83945641 -6.25 11.3125 C-7.5 8.25 -7.5 8.25 -7.25 5.3125 C-5.20952064 1.55801798 -4.31786447 0.41517928 0 0 Z " fill="#DDECF2" transform="translate(70.25,62.6875)"/>
<path d="M0 0 C3.45102209 0.34510221 4.81719344 0.73840807 7.125 3.3125 C7.375 6 7.375 6 7.125 8.3125 C6.135 8.3125 5.145 8.3125 4.125 8.3125 C4.125 6.9925 4.125 5.6725 4.125 4.3125 C1.75194422 3.89469121 1.75194422 3.89469121 -0.875 4.3125 C-3.60008509 7.60139579 -4.23646791 10.09537443 -3.875 14.3125 C-0.54965243 15.42094919 1.74682575 15.15704356 5.125 14.3125 C3.25 18.1875 3.25 18.1875 2.125 19.3125 C-1.35997993 19.69971999 -3.25136806 19.70637281 -6.25 17.8125 C-8.49192053 14.36339149 -8.54200245 11.2595851 -7.875 7.3125 C-6.00120371 3.39456231 -4.52487664 0.49183442 0 0 Z " fill="#E5F0F5" transform="translate(194.875,19.6875)"/>
<path d="M0 0 C7.4930534 -0.0506268 14.98606284 -0.08570263 22.47924805 -0.10986328 C25.02939502 -0.11993328 27.57953042 -0.13359004 30.12963867 -0.15087891 C33.7908819 -0.17508312 37.45197274 -0.18647305 41.11328125 -0.1953125 C42.82902092 -0.21079636 42.82902092 -0.21079636 44.579422 -0.22659302 C45.64029526 -0.22674408 46.70116852 -0.22689514 47.79418945 -0.22705078 C48.72906693 -0.231492 49.6639444 -0.23593323 50.62715149 -0.24050903 C53 0 53 0 56 2 C55.67 2.99 55.34 3.98 55 5 C55.99 5.33 56.98 5.66 58 6 C54.18259965 5.5126723 50.49133938 4.90331437 46.75 4 C31.71813392 0.63165543 15.22344291 1.29837764 0 3 C0 2.01 0 1.02 0 0 Z " fill="#2A7FBE" transform="translate(138,0)"/>
<path d="M0 0 C2.04650391 3.06975587 2.99704565 5.69084152 4.125 9.1875 C4.47820312 10.27417969 4.83140625 11.36085937 5.1953125 12.48046875 C5.46085937 13.31191406 5.72640625 14.14335937 6 15 C6 13.68 6 12.36 6 11 C6.66 11 7.32 11 8 11 C9.99785435 15.1205746 10.17835515 18.45194365 10 23 C9.34 22.67 8.68 22.34 8 22 C8.33 23.051875 8.66 24.10375 9 25.1875 C9.83966782 28.38873357 10.19750904 30.7411008 10 34 C8 33 8 33 7.03857422 30.49975586 C6.7138916 29.41573486 6.38920898 28.33171387 6.0546875 27.21484375 C5.52294922 25.46010742 5.52294922 25.46010742 4.98046875 23.66992188 C4.43326172 21.82237305 4.43326172 21.82237305 3.875 19.9375 C3.31619141 18.08415039 3.31619141 18.08415039 2.74609375 16.19335938 C1.82381165 13.13090984 0.90879531 10.06647369 0 7 C-0.33 8.32 -0.66 9.64 -1 11 C-3.76223278 8.23776722 -3.57856291 5.79293383 -4 2 C-2.68 1.34 -1.36 0.68 0 0 Z " fill="#257BBD" transform="translate(100,131)"/>
<path d="M0 0 C1.65 0.99 3.3 1.98 5 3 C5.56762695 5.4519043 5.56762695 5.4519043 5.48828125 8.32421875 C5.47216797 9.35224609 5.45605469 10.38027344 5.43945312 11.43945312 C5.39755859 12.51130859 5.35566406 13.58316406 5.3125 14.6875 C5.28994141 15.77095703 5.26738281 16.85441406 5.24414062 17.97070312 C5.1851579 20.64851905 5.10290307 23.32357027 5 26 C4.34 26 3.68 26 3 26 C2.34 26.99 1.68 27.98 1 29 C0.67 19.43 0.34 9.86 0 0 Z " fill="#1B75BB" transform="translate(283,107)"/>
<path d="M0 0 C3.29744644 4.94616966 2.32760021 10.56444104 2.3125 16.375 C2.32861328 17.60734375 2.34472656 18.8396875 2.36132812 20.109375 C2.36197266 21.29789063 2.36261719 22.48640625 2.36328125 23.7109375 C2.36775269 25.33974854 2.36775269 25.33974854 2.37231445 27.00146484 C1.95457306 30.36585815 0.98761192 32.28030905 -1 35 C-1.33 35 -1.66 35 -2 35 C-1.88188019 30.33673618 -1.75764134 25.6736912 -1.62768555 21.01074219 C-1.58432759 19.42387343 -1.54265313 17.83695776 -1.50268555 16.25 C-1.44500368 13.97121021 -1.38130362 11.69265678 -1.31640625 9.4140625 C-1.29969376 8.70255035 -1.28298126 7.99103821 -1.26576233 7.25796509 C-1.11387171 2.22774341 -1.11387171 2.22774341 0 0 Z " fill="#F7FAFB" transform="translate(282,109)"/>
<path d="M0 0 C4.34170523 2.3836813 8.2064129 4.78119883 12 8 C12.99 7.34 13.98 6.68 15 6 C15.99 6 16.98 6 18 6 C16.49087042 10.98012761 13.44338151 14.24259942 10 18 C9.34 17.67 8.68 17.34 8 17 C8.66 15.02 9.32 13.04 10 11 C9.484375 10.773125 8.96875 10.54625 8.4375 10.3125 C5.07596873 8.5024447 2.07088856 6.26003596 -1 4 C-0.67 2.68 -0.34 1.36 0 0 Z " fill="#E5F0F5" transform="translate(236,184)"/>
<path d="M0 0 C4.74770241 0.94954048 7.25028512 2.10731518 11.3125 4.5625 C12.38113281 5.20316406 13.44976562 5.84382812 14.55078125 6.50390625 C15.35902344 6.99761719 16.16726563 7.49132812 17 8 C16.67 8.99 16.34 9.98 16 11 C11.93774452 10.42176904 9.15237654 9.10882263 5.6875 6.9375 C4.80449219 6.38964844 3.92148438 5.84179688 3.01171875 5.27734375 C2.01591797 4.64505859 2.01591797 4.64505859 1 4 C0.690625 4.78375 0.38125 5.5675 0.0625 6.375 C-1 9 -1 9 -2 11 C-2.99 10.67 -3.98 10.34 -5 10 C-3.35 6.7 -1.7 3.4 0 0 Z " fill="#E5F0F5" transform="translate(244,171)"/>
<path d="M0 0 C0 0.66 0 1.32 0 2 C-4.62 2.33 -9.24 2.66 -14 3 C-14 3.66 -14 4.32 -14 5 C-13.05125 4.835 -12.1025 4.67 -11.125 4.5 C-6.4236123 3.81458208 -1.73996714 3.91416559 3 4 C3 4.99 3 5.98 3 7 C-3.27 7 -9.54 7 -16 7 C-16 6.34 -16 5.68 -16 5 C-17.32 4.34 -18.64 3.68 -20 3 C-13.21256822 0.18447274 -7.31110994 -0.3689719 0 0 Z " fill="#95C0DC" transform="translate(190,189)"/>
<path d="M0 0 C2.0078125 0.23046875 2.0078125 0.23046875 5.0078125 2.23046875 C5.2578125 4.79296875 5.2578125 4.79296875 5.0078125 7.23046875 C3.13137489 9.10690636 0.50975549 8.41031862 -1.984375 8.4609375 C-3.9921875 8.23046875 -3.9921875 8.23046875 -6.9921875 6.23046875 C-7.2421875 3.66796875 -7.2421875 3.66796875 -6.9921875 1.23046875 C-5.11574989 -0.64596886 -2.49413049 0.05061888 0 0 Z " fill="#237ABD" transform="translate(262.9921875,144.76953125)"/>
<path d="M0 0 C3.25696479 0.41755959 4.63443291 0.63443291 7 3 C6.42307692 9.57692308 6.42307692 9.57692308 5 11 C2.5625 11.25 2.5625 11.25 0 11 C-2 8 -2 8 -1.6875 4.375 C-1 1 -1 1 0 0 Z " fill="#D1E2EE" transform="translate(133,253)"/>
<path d="M0 0 C1.1446875 0.3403125 1.1446875 0.3403125 2.3125 0.6875 C3.5625 7.3125 3.5625 7.3125 1.3125 10.6875 C-1.1875 11.0625 -1.1875 11.0625 -3.6875 10.6875 C-5.84252531 7.45496204 -6.15606135 6.43599077 -5.6875 2.6875 C-3.93031165 -0.08700791 -3.30350824 -0.38412887 0 0 Z " fill="#C4DAEB" transform="translate(169.6875,253.3125)"/>
<path d="M0 0 C3.14624993 -0.26218749 4.61837017 -0.24754367 7.3125 1.5 C8.1478125 2.2425 8.1478125 2.2425 9 3 C9.33 2.01 9.66 1.02 10 0 C9.79375 0.94875 9.5875 1.8975 9.375 2.875 C9.25125 3.90625 9.1275 4.9375 9 6 C9.66 6.66 10.32 7.32 11 8 C11.71408334 9.98356483 12.38617742 11.98315437 13 14 C11.35 14 9.7 14 8 14 C7.67 12.02 7.34 10.04 7 8 C5.35 8 3.7 8 2 8 C0.74335022 5.09399739 0 3.20395416 0 0 Z " fill="#DDECF3" transform="translate(139,19)"/>
<path d="M0 0 C0.88300781 0.00902344 1.76601562 0.01804688 2.67578125 0.02734375 C3.67158203 0.04474609 3.67158203 0.04474609 4.6875 0.0625 C4.85176757 4.18972261 4.47069327 5.93140758 1.6875 9.0625 C1.6875 7.0825 1.6875 5.1025 1.6875 3.0625 C-5.67345182 3.37573199 -11.62133089 5.00164605 -18.3125 8.0625 C-18.9725 7.4025 -19.6325 6.7425 -20.3125 6.0625 C-18.75398245 5.24238688 -17.19048284 4.43173787 -15.625 3.625 C-14.75488281 3.17253906 -13.88476562 2.72007812 -12.98828125 2.25390625 C-8.6306832 0.31366186 -4.73416793 -0.06312224 0 0 Z " fill="#448EC5" transform="translate(183.3125,153.9375)"/>
<path d="M0 0 C1.32 0.66 2.64 1.32 4 2 C3.72510809 6.03174806 3.46508424 7.56894631 0.4375 10.375 C-0.366875 10.91125 -1.17125 11.4475 -2 12 C-4.475 11.01 -4.475 11.01 -7 10 C-5.33248852 6.05860922 -2.77289351 3.2107188 0 0 Z " fill="#267CBD" transform="translate(227,41)"/>
<path d="M0 0 C3.59905908 0.55550695 4.99909799 1.74887248 7.25 4.5625 C7.77078125 5.20316406 8.2915625 5.84382812 8.828125 6.50390625 C9.21484375 6.99761719 9.6015625 7.49132812 10 8 C9.01 9.485 9.01 9.485 8 11 C4.73950703 11.60061713 3.4042494 11.26595355 0.625 9.4375 C-1 7 -1 7 -0.75 3.25 C-0.5025 2.1775 -0.255 1.105 0 0 Z " fill="#2B7EBE" transform="translate(227,198)"/>
<path d="M0 0 C1.32 0.33 2.64 0.66 4 1 C3.95875 1.78375 3.9175 2.5675 3.875 3.375 C3.71271266 6.16116119 3.71271266 6.16116119 6 8 C4.52307692 12.67692308 4.52307692 12.67692308 1.875 14.3125 C0.946875 14.6528125 0.946875 14.6528125 0 15 C-0.33 14.34 -0.66 13.68 -1 13 C-1.66 13.99 -2.32 14.98 -3 16 C-2.30834212 10.58201328 -1.24200752 5.3177215 0 0 Z " fill="#E0EDF4" transform="translate(103,205)"/>
<path d="M0 0 C0.515625 0.268125 1.03125 0.53625 1.5625 0.8125 C4.15056919 2.1160247 4.15056919 2.1160247 7.5625 3.375 C10.89658188 4.95111143 12.17525608 5.88720155 14 9 C12.02 9.99 12.02 9.99 10 11 C9.34 10.01 8.68 9.02 8 8 C4.91634129 7.7497843 4.91634129 7.7497843 2 8 C2 7.34 2 6.68 2 6 C1.360625 5.896875 0.72125 5.79375 0.0625 5.6875 C-0.618125 5.460625 -1.29875 5.23375 -2 5 C-2.33 4.01 -2.66 3.02 -3 2 C-2.01 1.34 -1.02 0.68 0 0 Z " fill="#E3EFF4" transform="translate(94,39)"/>
<path d="M0 0 C1.65 0 3.3 0 5 0 C7 2 7 2 7.1953125 3.9453125 C7.13020833 5.96354167 7.06510417 7.98177083 7 10 C4.69 10.33 2.38 10.66 0 11 C0 7.37 0 3.74 0 0 Z " fill="#D8E9F1" transform="translate(80,253)"/>
<path d="M0 0 C0 0.99 0 1.98 0 3 C-2.24732102 3.84124316 -4.49738785 4.67314832 -6.75 5.5 C-7.70132813 5.85771484 -7.70132813 5.85771484 -8.671875 6.22265625 C-12.03286607 7.44801758 -14.36871587 8 -18 8 C-18 6.68 -18 5.36 -18 4 C-15.75438718 3.13237686 -13.50473745 2.2807897 -11.25 1.4375 C-10.61578125 1.19064453 -9.9815625 0.94378906 -9.328125 0.68945312 C-5.88990821 -0.58197079 -3.47831118 -1.46686355 0 0 Z " fill="#E6F0F5" transform="translate(71,159)"/>
<path d="M0 0 C2.05078772 4.10157543 -0.07451613 9.63700461 -1 14 C-1.33 14 -1.66 14 -2 14 C-2 12.35 -2 10.7 -2 9 C-4.35367713 8.3121764 -4.35367713 8.3121764 -7 8 C-7.99 8.66 -8.98 9.32 -10 10 C-10.66 9.67 -11.32 9.34 -12 9 C-10.55746343 5.63408134 -8.66735273 3.48952921 -6 1 C-5.34 1.33 -4.68 1.66 -4 2 C-3.34 2 -2.68 2 -2 2 C-1.34 1.34 -0.68 0.68 0 0 Z " fill="#C3DBEA" transform="translate(212,33)"/>
<path d="M0 0 C4.55749966 0.79260864 6.89589209 4.13455245 9.875 7.5 C8.51171875 9.01953125 8.51171875 9.01953125 6.875 10.5 C4.6875 10.1875 4.6875 10.1875 2.875 9.5 C2.875 8.18 2.875 6.86 2.875 5.5 C1.555 5.5 0.235 5.5 -1.125 5.5 C-1.455 6.82 -1.785 8.14 -2.125 9.5 C-3.445 9.83 -4.765 10.16 -6.125 10.5 C-5.64949439 9.01965236 -5.16948784 7.54074979 -4.6875 6.0625 C-4.42066406 5.23878906 -4.15382813 4.41507813 -3.87890625 3.56640625 C-2.90474173 0.89628693 -2.77554957 0.65307049 0 0 Z " fill="#F3F8F9" transform="translate(87.125,191.5)"/>
<path d="M0 0 C1.12894876 0.93274109 2.25300876 1.87140122 3.375 2.8125 C4.00148438 3.33457031 4.62796875 3.85664063 5.2734375 4.39453125 C7 6 7 6 9 9 C8.67 9.99 8.34 10.98 8 12 C8.66 12.33 9.32 12.66 10 13 C5.90785226 13 4.80806297 11.39777126 1.8125 8.6875 C0.91144531 7.88699219 0.01039062 7.08648437 -0.91796875 6.26171875 C-3 4 -3 4 -3 1 C-2.01 1.33 -1.02 1.66 0 2 C0 1.34 0 0.68 0 0 Z " fill="#1E70AF" transform="translate(68,210)"/>
<path d="M0 0 C5.87816436 5.87816436 7 19.01036528 7 27 C6.34 27 5.68 27 5 27 C3.95581959 24.19433265 2.93992742 21.38307737 1.9375 18.5625 C1.49567383 17.3878418 1.49567383 17.3878418 1.04492188 16.18945312 C-1.00812448 10.32015588 -1.07334806 6.12728405 0 0 Z " fill="#5E9ECC" transform="translate(99,135)"/>
<path d="M0 0 C0.625 1.8125 0.625 1.8125 1 4 C0.01 5.485 0.01 5.485 -1 7 C0.65 7.33 2.3 7.66 4 8 C4 11 4 11 2 13.1875 C1.01 14.0846875 1.01 14.0846875 0 15 C-2.5625 12.8125 -2.5625 12.8125 -5 10 C-5.0625 7.3125 -5.0625 7.3125 -4 5 C-1.9375 3.6875 -1.9375 3.6875 0 3 C0 2.01 0 1.02 0 0 Z " fill="#D1E4EE" transform="translate(82,195)"/>
<path d="M0 0 C0.99 0 1.98 0 3 0 C3 2.97 3 5.94 3 9 C3.99 9 4.98 9 6 9 C6 6.03 6 3.06 6 0 C6.99 0 7.98 0 9 0 C9.05399736 1.45792884 9.09279177 2.91642712 9.125 4.375 C9.14820312 5.18710937 9.17140625 5.99921875 9.1953125 6.8359375 C9 9 9 9 7 11 C4.5 11.25 4.5 11.25 2 11 C0 9 0 9 -0.1953125 6.8359375 C-0.17210938 6.02382813 -0.14890625 5.21171875 -0.125 4.375 C-0.10695313 3.55773437 -0.08890625 2.74046875 -0.0703125 1.8984375 C-0.04710938 1.27195313 -0.02390625 0.64546875 0 0 Z " fill="#C3DBEB" transform="translate(89,253)"/>
<path d="M0 0 C0.99 0 1.98 0 3 0 C3 3.63 3 7.26 3 11 C2.01 11 1.02 11 0 11 C-0.66 9.68 -1.32 8.36 -2 7 C-2.33 8.32 -2.66 9.64 -3 11 C-3.66 11 -4.32 11 -5 11 C-5 7.7 -5 4.4 -5 1 C-3.02 1.99 -3.02 1.99 -1 3 C-0.67 2.01 -0.34 1.02 0 0 Z " fill="#DCE9F2" transform="translate(147,253)"/>
<path d="M0 0 C0 1.98 0 3.96 0 6 C-2.90600261 7.25664978 -4.79604584 8 -8 8 C-8.33 5.69 -8.66 3.38 -9 1 C-5.64919071 -1.10976881 -3.77897651 -1.0497157 0 0 Z " fill="#227ABD" transform="translate(100,115)"/>
<path d="M0 0 C0 0.99 0 1.98 0 3 C-1.89091736 3.84442881 -3.78797515 4.67511587 -5.6875 5.5 C-7.27111328 6.19609375 -7.27111328 6.19609375 -8.88671875 6.90625 C-11.85627816 7.94950801 -13.89195063 8.23065301 -17 8 C-17 7.01 -17 6.02 -17 5 C-14.91999989 4.15838146 -12.83585854 3.32699237 -10.75 2.5 C-9.58984375 2.0359375 -8.4296875 1.571875 -7.234375 1.09375 C-4 0 -4 0 0 0 Z " fill="#EAF3F7" transform="translate(266,87)"/>
<path d="M0 0 C2.92879371 0.62759865 5.36095629 1.58622659 8 3 C7.67 3.66 7.34 4.32 7 5 C17.395 4.505 17.395 4.505 28 4 C28 4.66 28 5.32 28 6 C18.43 6 8.86 6 -1 6 C-1.33 5.01 -1.66 4.02 -2 3 C-1.34 2.01 -0.68 1.02 0 0 Z " fill="#1E77BC" transform="translate(167,191)"/>
<path d="M0 0 C0 0.33 0 0.66 0 1 C-4.455 1.495 -4.455 1.495 -9 2 C-6.36 2.33 -3.72 2.66 -1 3 C-1 3.33 -1 3.66 -1 4 C-5.455 4.495 -5.455 4.495 -10 5 C-10 6.65 -10 8.3 -10 10 C-9.34 10.33 -8.68 10.66 -8 11 C-8 11.99 -8 12.98 -8 14 C-9.32 14 -10.64 14 -12 14 C-14.48038907 10.2794164 -14.46337203 8.40203429 -14 4 C-10.90832654 -1.48069387 -5.55641962 -0.38173875 0 0 Z " fill="#D6E7F0" transform="translate(269,123)"/>
<path d="M0 0 C1.65 0 3.3 0 5 0 C7 2 7 2 7.1953125 4.1640625 C7.17210937 4.97617187 7.14890625 5.78828125 7.125 6.625 C7.10695312 7.44226563 7.08890625 8.25953125 7.0703125 9.1015625 C7.03550781 10.04128906 7.03550781 10.04128906 7 11 C6.34 11 5.68 11 5 11 C5 9.68 5 8.36 5 7 C4.01 7 3.02 7 2 7 C2 8.32 2 9.64 2 11 C1.34 11 0.68 11 0 11 C0 7.37 0 3.74 0 0 Z " fill="#EAF2F7" transform="translate(175,253)"/>
<path d="M0 0 C1.32 0 2.64 0 4 0 C4.02712351 2.39591038 4.0468982 4.79150957 4.0625 7.1875 C4.07087891 7.86103516 4.07925781 8.53457031 4.08789062 9.22851562 C4.10606538 12.95434131 3.89299392 16.3788042 3 20 C2.01 19.67 1.02 19.34 0 19 C0 12.73 0 6.46 0 0 Z " fill="#AFAFAF" transform="translate(212,102)"/>
<path d="M0 0 C2 1 2 1 2.8515625 3.50390625 C3.10679687 4.51324219 3.36203125 5.52257812 3.625 6.5625 C3.88539063 7.57441406 4.14578125 8.58632812 4.4140625 9.62890625 C4.60742188 10.41136719 4.80078125 11.19382813 5 12 C2.36 12 -0.28 12 -3 12 C-2.49202991 7.6822542 -1.80317221 3.96697886 0 0 Z " fill="#F9E2ED" transform="translate(158,120)"/>
<path d="M0 0 C0.66 0 1.32 0 2 0 C2 2.97 2 5.94 2 9 C2.99 9 3.98 9 5 9 C5 6.03 5 3.06 5 0 C5.99 0 6.98 0 8 0 C8.05399736 1.45792884 8.09279177 2.91642712 8.125 4.375 C8.14820313 5.18710937 8.17140625 5.99921875 8.1953125 6.8359375 C8 9 8 9 6 11 C3.4375 11.1875 3.4375 11.1875 1 11 C0 10 0 10 -0.09765625 7.71484375 C-0.08605469 6.79832031 -0.07445312 5.88179688 -0.0625 4.9375 C-0.05347656 4.01839844 -0.04445312 3.09929687 -0.03515625 2.15234375 C-0.02355469 1.44207031 -0.01195312 0.73179687 0 0 Z " fill="#D3E5F0" transform="translate(198,253)"/>
<path d="M0 0 C1.67542976 0.28604898 3.34385343 0.61781233 5 1 C5.33 1.99 5.66 2.98 6 4 C5.01 4 4.02 4 3 4 C3 3.34 3 2.68 3 2 C2.34 2 1.68 2 1 2 C2.65 3.65 4.3 5.3 6 7 C5.34 8.32 4.68 9.64 4 11 C1.03 10.505 1.03 10.505 -2 10 C-2 9.01 -2 8.02 -2 7 C0.475 7.99 0.475 7.99 3 9 C3 8.34 3 7.68 3 7 C0.525 6.01 0.525 6.01 -2 5 C-1.125 1.125 -1.125 1.125 0 0 Z " fill="#D7E8F2" transform="translate(237,253)"/>
<path d="M0 0 C0.99 0.33 1.98 0.66 3 1 C4.52160014 4.6037898 5 7.05220686 5 11 C4.34 11 3.68 11 3 11 C3 10.34 3 9.68 3 9 C1.68 9 0.36 9 -1 9 C-1 9.66 -1 10.32 -1 11 C-1.66 11 -2.32 11 -3 11 C-2.25 3.375 -2.25 3.375 0 0 Z " fill="#DCEAF3" transform="translate(112,253)"/>
<path d="M0 0 C2.31 0 4.62 0 7 0 C7 0.66 7 1.32 7 2 C5.68 2 4.36 2 3 2 C3 2.99 3 3.98 3 5 C3.99 5 4.98 5 6 5 C6 5.66 6 6.32 6 7 C5.01 7 4.02 7 3 7 C3 7.66 3 8.32 3 9 C4.32 9 5.64 9 7 9 C7 9.66 7 10.32 7 11 C4.69 11 2.38 11 0 11 C0 7.37 0 3.74 0 0 Z " fill="#CDE3EF" transform="translate(71,253)"/>
<path d="M0 0 C0 0.99 0 1.98 0 3 C-5.94 3 -11.88 3 -18 3 C-18 2.01 -18 1.02 -18 0 C-11.76817361 -1.03863773 -6.25307239 -0.83288874 0 0 Z " fill="#F4F9FA" transform="translate(65,134)"/>
<path d="M0 0 C1.98 0 3.96 0 6 0 C7.125 5.75 7.125 5.75 6 8 C3.625 8.1875 3.625 8.1875 1 8 C-1 5 -1 5 -0.625 2.3125 C-0.41875 1.549375 -0.2125 0.78625 0 0 Z " fill="#EBF3F8" transform="translate(197,217)"/>
<path d="M0 0 C7.36270368 -0.48280024 7.36270368 -0.48280024 10.0625 1.5625 C11.36929016 4.96015441 10.74134177 7.49547526 10 11 C8.68 11.33 7.36 11.66 6 12 C5.67 11.01 5.34 10.02 5 9 C5.66 8.67 6.32 8.34 7 8 C6.67 6.35 6.34 4.7 6 3 C3.69 2.67 1.38 2.34 -1 2 C-0.67 1.34 -0.34 0.68 0 0 Z " fill="#F9FBFB" transform="translate(260,98)"/>
<path d="M0 0 C0.66 1.32 1.32 2.64 2 4 C0.71186658 4.83878455 -0.58063256 5.67086783 -1.875 6.5 C-2.59429687 6.9640625 -3.31359375 7.428125 -4.0546875 7.90625 C-6 9 -6 9 -8 9 C-7.34 7.35 -6.68 5.7 -6 4 C-7.65 3.67 -9.3 3.34 -11 3 C-7.11595442 0.41063628 -4.5725325 -0.12358196 0 0 Z " fill="#F0F7F8" transform="translate(261,76)"/>
<path d="M0 0 C1.2065625 0.0309375 1.2065625 0.0309375 2.4375 0.0625 C3.5625 5.8125 3.5625 5.8125 2.4375 8.0625 C0.0625 8.25 0.0625 8.25 -2.5625 8.0625 C-4.5625 5.0625 -4.5625 5.0625 -4.25 2.9375 C-3.2163408 0.11842946 -3.11381427 0.07594669 0 0 Z " fill="#EBF3F7" transform="translate(129.5625,222.9375)"/>
<path d="M0 0 C1.65 0.33 3.3 0.66 5 1 C5.33 1.99 5.66 2.98 6 4 C3.525 3.01 3.525 3.01 1 2 C1 4.31 1 6.62 1 9 C1.99 9 2.98 9 4 9 C4 8.34 4 7.68 4 7 C4.66 7 5.32 7 6 7 C5.67 8.32 5.34 9.64 5 11 C2.625 11.125 2.625 11.125 0 11 C-2 9 -2 9 -2.25 6.0625 C-2 3 -2 3 0 0 Z " fill="#DEEDF4" transform="translate(219,253)"/>
<path d="M0 0 C2.4375 0.375 2.4375 0.375 5 1 C5.33 1.66 5.66 2.32 6 3 C4.35 2.67 2.7 2.34 1 2 C2.25541557 4.51083114 3.50063488 4.87125446 6 6 C5.67 7.65 5.34 9.3 5 11 C3.35 11 1.7 11 0 11 C-0.33 10.01 -0.66 9.02 -1 8 C0.32 8.33 1.64 8.66 3 9 C3 8.34 3 7.68 3 7 C1.68 6.34 0.36 5.68 -1 5 C-0.67 3.35 -0.34 1.7 0 0 Z " fill="#D2E5F0" transform="translate(246,253)"/>
<path d="M0 0 C1.67542976 0.28604898 3.34385343 0.61781233 5 1 C5 1.66 5 2.32 5 3 C3.68 2.67 2.36 2.34 1 2 C1.825 2.763125 2.65 3.52625 3.5 4.3125 C6 7 6 7 6 10 C4.02 10.33 2.04 10.66 0 11 C0 10.01 0 9.02 0 8 C0.99 8.33 1.98 8.66 3 9 C3 8.34 3 7.68 3 7 C0.525 6.01 0.525 6.01 -2 5 C-1.125 1.125 -1.125 1.125 0 0 Z " fill="#DEEBF2" transform="translate(190,253)"/>
<path d="M0 0 C0 3.63 0 7.26 0 11 C-0.99 10.67 -1.98 10.34 -3 10 C-2.67 9.01 -2.34 8.02 -2 7 C-2.66 7 -3.32 7 -4 7 C-4 7.66 -4 8.32 -4 9 C-4.99 9 -5.98 9 -7 9 C-7 6.69 -7 4.38 -7 2 C-4.525 2.99 -4.525 2.99 -2 4 C-2.33 3.01 -2.66 2.02 -3 1 C-1 0 -1 0 0 0 Z " fill="#3584C7" transform="translate(227,253)"/>
<path d="M0 0 C0.99 2.31 1.98 4.62 3 7 C2.34 7 1.68 7 1 7 C0.67 7.99 0.34 8.98 0 10 C-0.66 9.34 -1.32 8.68 -2 8 C-4.06874034 7.3574765 -4.06874034 7.3574765 -6 7 C-6 5.68 -6 4.36 -6 3 C-2.78571429 0 -2.78571429 0 0 0 Z " fill="#2E81C0" transform="translate(106,36)"/>
<path d="M0 0 C0.99 0.33 1.98 0.66 3 1 C3 1.66 3 2.32 3 3 C3.66 3 4.32 3 5 3 C3.49653601 7.20969919 0.85444186 8.91860139 -3 11 C-5.375 10.75 -5.375 10.75 -7 10 C-6.01 9.67 -5.02 9.34 -4 9 C-4.33 8.34 -4.66 7.68 -5 7 C-3.68 6.34 -2.36 5.68 -1 5 C-1.33 4.01 -1.66 3.02 -2 2 C-1.34 2 -0.68 2 0 2 C0 1.34 0 0.68 0 0 Z " fill="#D8E8F0" transform="translate(237,202)"/>
<path d="M0 0 C2 2 2 2 2 5 C2.7425 4.484375 3.485 3.96875 4.25 3.4375 C7 2 7 2 9.3125 2.3125 C10.1478125 2.6528125 10.1478125 2.6528125 11 3 C8.45217026 5.97246802 5.54659117 7.41535288 2 9 C1.34 9 0.68 9 0 9 C-0.66 7.35 -1.32 5.7 -2 4 C-1.34 4 -0.68 4 0 4 C0 2.68 0 1.36 0 0 Z " fill="#E6F0F4" transform="translate(110,37)"/>
<path d="M0 0 C0.79019531 0.4640625 1.58039063 0.928125 2.39453125 1.40625 C2.98621094 1.7671875 3.57789063 2.128125 4.1875 2.5 C4.1875 3.49 4.1875 4.48 4.1875 5.5 C3.43726563 5.15066406 2.68703125 4.80132812 1.9140625 4.44140625 C-4.74096947 1.48268297 -10.51504312 -0.32240702 -17.8125 -0.5 C-17.8125 -0.83 -17.8125 -1.16 -17.8125 -1.5 C-5.34426796 -3.19060773 -5.34426796 -3.19060773 0 0 Z " fill="#428DC5" transform="translate(154.8125,157.5)"/>
<path d="M0 0 C2 1 2 1 2.8515625 3.50390625 C3.10679688 4.51324219 3.36203125 5.52257812 3.625 6.5625 C3.88539062 7.57441406 4.14578125 8.58632812 4.4140625 9.62890625 C4.60742188 10.41136719 4.80078125 11.19382813 5 12 C4.34 12 3.68 12 3 12 C3.33 14.31 3.66 16.62 4 19 C1.260102 16.260102 1.1099286 13.83180884 0.3125 10.0625 C0.04050781 8.81597656 -0.23148437 7.56945312 -0.51171875 6.28515625 C-1 3 -1 3 0 0 Z " fill="#68A4CE" transform="translate(103,130)"/>
<path d="M0 0 C1.6875 1.125 1.6875 1.125 3 3 C3.6875 6.6875 3.6875 6.6875 4 10 C0.19364503 6.79239749 -3.54563567 3.59253891 -7 0 C-3.83170302 -1.05609899 -3.01480825 -1.13055309 0 0 Z " fill="#2379BC" transform="translate(246,29)"/>
<path d="M0 0 C2.625 0.375 2.625 0.375 5 1 C5 1.99 5 2.98 5 4 C4.34 4 3.68 4 3 4 C3 3.34 3 2.68 3 2 C2.01 2 1.02 2 0 2 C0 4.31 0 6.62 0 9 C0.99 9 1.98 9 3 9 C3 8.34 3 7.68 3 7 C3.66 7 4.32 7 5 7 C4.67 8.32 4.34 9.64 4 11 C2.33388095 11.042721 0.66617115 11.04063832 -1 11 C-2.89488952 9.10511048 -2.18019112 6.42860854 -2.23046875 3.91015625 C-2 2 -2 2 0 0 Z " fill="#DBEAF2" transform="translate(102,253)"/>
<path d="M0 0 C0.66 0 1.32 0 2 0 C2 0.66 2 1.32 2 2 C2.99 2 3.98 2 5 2 C5 1.34 5 0.68 5 0 C5.66 0 6.32 0 7 0 C7.28875 0.639375 7.5775 1.27875 7.875 1.9375 C8.82823451 4.15206079 8.82823451 4.15206079 11 5 C11 5.66 11 6.32 11 7 C9.68 6.67 8.36 6.34 7 6 C7.33 6.99 7.66 7.98 8 9 C6.68 9.33 5.36 9.66 4 10 C4 9.01 4 8.02 4 7 C3.24849977 3.72226496 3.24849977 3.72226496 0 2 C0 1.34 0 0.68 0 0 Z " fill="#4290C9" transform="translate(238,255)"/>
<path d="M0 0 C0.99 0 1.98 0 3 0 C2.85892253 1.45880109 2.71197585 2.91703551 2.5625 4.375 C2.48128906 5.18710938 2.40007812 5.99921875 2.31640625 6.8359375 C2 9 2 9 1 11 C-0.65 11 -2.3 11 -4 11 C-4.33 9.68 -4.66 8.36 -5 7 C-3.68 7 -2.36 7 -1 7 C-0.67 4.69 -0.34 2.38 0 0 Z " fill="#F4F9FB" transform="translate(64,107)"/>
<path d="M0 0 C0.99 1.32 1.98 2.64 3 4 C5.64 3.67 8.28 3.34 11 3 C9.125 6.875 9.125 6.875 8 8 C3.96839809 8.26293056 2.44107266 8.29404844 -1 6 C-0.67 4.02 -0.34 2.04 0 0 Z " fill="#D7E7F0" transform="translate(189,31)"/>
<path d="M0 0 C2.625 0.375 2.625 0.375 5 1 C5 1.99 5 2.98 5 4 C4.34 4 3.68 4 3 4 C3 3.34 3 2.68 3 2 C2.01 2.495 2.01 2.495 1 3 C0.34227572 6.02934491 0.34227572 6.02934491 0 9 C1.65 8.67 3.3 8.34 5 8 C4.67 8.99 4.34 9.98 4 11 C1.03 10.505 1.03 10.505 -2 10 C-2.1953125 3.9453125 -2.1953125 3.9453125 -2 2 C-1.34 1.34 -0.68 0.68 0 0 Z " fill="#E1EEF5" transform="translate(210,253)"/>
<path d="M0 0 C1.98 0 3.96 0 6 0 C6 0.66 6 1.32 6 2 C4.68 2 3.36 2 2 2 C2 2.99 2 3.98 2 5 C3.32 5.33 4.64 5.66 6 6 C4.68 6 3.36 6 2 6 C2 6.99 2 7.98 2 9 C3.32 9 4.64 9 6 9 C6 9.66 6 10.32 6 11 C4.02 11 2.04 11 0 11 C0 7.37 0 3.74 0 0 Z " fill="#EBF4F8" transform="translate(227,253)"/>
<path d="M0 0 C-2.6855594 2.6855594 -5.37621328 3.06049974 -9 4 C-9.33 5.32 -9.66 6.64 -10 8 C-11.32 8.33 -12.64 8.66 -14 9 C-14 8.01 -14 7.02 -14 6 C-14.99 5.67 -15.98 5.34 -17 5 C-2.90487239 -1.45243619 -2.90487239 -1.45243619 0 0 Z " fill="#1E6BA6" transform="translate(122,3)"/>
<path d="M0 0 C2.31 0 4.62 0 7 0 C7 0.66 7 1.32 7 2 C5.35 2 3.7 2 2 2 C2 2.99 2 3.98 2 5 C3.32 5 4.64 5 6 5 C6 5.66 6 6.32 6 7 C4.68 7 3.36 7 2 7 C2 8.32 2 9.64 2 11 C1.34 11 0.68 11 0 11 C0 7.37 0 3.74 0 0 Z " fill="#DDEAF4" transform="translate(156,253)"/>
<path d="M0 0 C0.66 1.32 1.32 2.64 2 4 C-0.64 6.31 -3.28 8.62 -6 11 C-7 7 -7 7 -7 5 C-5.35666496 3.96210419 -3.68756133 2.96432076 -2 2 C-1.34 1.34 -0.68 0.68 0 0 Z " fill="#196DAF" transform="translate(251,212)"/>
<path d="M0 0 C-2.57784846 2.64752004 -4.91648098 4.94432065 -8 7 C-8.66 4.69 -9.32 2.38 -10 0 C-6.30458414 -0.95024979 -3.69541586 -0.95024979 0 0 Z " fill="#E7F1F5" transform="translate(117,213)"/>
<path d="M0 0 C7.2484945 -0.41640288 13.16914355 0.55833216 20 3 C20 3.33 20 3.66 20 4 C13.32271667 3.41339754 6.65936905 2.76418989 0 2 C0 1.34 0 0.68 0 0 Z " fill="#DAEAF1" transform="translate(132,189)"/>
<path d="M0 0 C6.0546875 -0.1953125 6.0546875 -0.1953125 8 0 C8.66 0.66 9.32 1.32 10 2 C7.36 2 4.72 2 2 2 C2 4.64 2 7.28 2 10 C1.67 9.34 1.34 8.68 1 8 C0.01 8.33 -0.98 8.66 -2 9 C-2 7.68 -2 6.36 -2 5 C-1.34 5 -0.68 5 0 5 C0 3.35 0 1.7 0 0 Z " fill="#297EBF" transform="translate(135,154)"/>
<path d="M0 0 C2.5 1.0625 2.5 1.0625 5 3 C5.3125 6.6875 5.3125 6.6875 5 10 C4.34 10 3.68 10 3 10 C2.67 11.32 2.34 12.64 2 14 C1.66179834 12.4176994 1.32964061 10.83410625 1 9.25 C0.814375 8.36828125 0.62875 7.4865625 0.4375 6.578125 C0 4 0 4 0 0 Z " fill="#1A6FB1" transform="translate(33,147)"/>
<path d="M0 0 C0.33 0 0.66 0 1 0 C1 6.6 1 13.2 1 20 C-0.32 19.34 -1.64 18.68 -3 18 C-2.34 18 -1.68 18 -1 18 C-1 16.68 -1 15.36 -1 14 C-1.66 13.67 -2.32 13.34 -3 13 C-3 12.34 -3 11.68 -3 11 C-2.34 11 -1.68 11 -1 11 C-0.67 7.37 -0.34 3.74 0 0 Z " fill="#B3B3B3" transform="translate(215,117)"/>
<path d="M0 0 C0.71929687 0.29003906 1.43859375 0.58007812 2.1796875 0.87890625 C2.90414062 1.16636719 3.62859375 1.45382813 4.375 1.75 C4.92929688 1.97816406 5.48359375 2.20632812 6.0546875 2.44140625 C6.0546875 3.43140625 6.0546875 4.42140625 6.0546875 5.44140625 C3.0846875 5.44140625 0.1146875 5.44140625 -2.9453125 5.44140625 C-3.2753125 3.79140625 -3.6053125 2.14140625 -3.9453125 0.44140625 C-1.9453125 -0.55859375 -1.9453125 -0.55859375 0 0 Z " fill="#5498C7" transform="translate(96.9453125,122.55859375)"/>
<path d="M0 0 C3.38069792 1.69034896 4.95715244 3.96557492 7.125 7.0625 C6.795 8.0525 6.465 9.0425 6.125 10.0625 C4.4175002 8.78187515 2.75126404 7.44482443 1.125 6.0625 C1.125 5.4025 1.125 4.7425 1.125 4.0625 C-0.195 4.0625 -1.515 4.0625 -2.875 4.0625 C-3.535 3.7325 -4.195 3.4025 -4.875 3.0625 C-2.49143836 0.08304795 -2.49143836 0.08304795 0 0 Z " fill="#DFEDF4" transform="translate(241.875,49.9375)"/>
<path d="M0 0 C0.66 0.33 1.32 0.66 2 1 C1.030625 1.598125 0.06125 2.19625 -0.9375 2.8125 C-4.23052042 4.71127509 -4.23052042 4.71127509 -5 8 C-8.3 8 -11.6 8 -15 8 C-12.05213324 6.03475549 -9.09027063 4.42527817 -5.9375 2.8125 C-4.87402344 2.26207031 -3.81054688 1.71164063 -2.71484375 1.14453125 C-1.81894531 0.76683594 -0.92304688 0.38914063 0 0 Z " fill="#E1EEF5" transform="translate(217,231)"/>
<path d="M0 0 C0 0.33 0 0.66 0 1 C-1.03640625 1.13277344 -2.0728125 1.26554688 -3.140625 1.40234375 C-4.51043265 1.58060639 -5.88022344 1.75899862 -7.25 1.9375 C-7.93191406 2.02451172 -8.61382812 2.11152344 -9.31640625 2.20117188 C-12.05667102 2.56033279 -14.70298666 2.91296132 -17.359375 3.69140625 C-17.90078125 3.79324219 -18.4421875 3.89507812 -19 4 C-19.66 3.34 -20.32 2.68 -21 2 C-13.7614665 -1.23540512 -7.77140391 -1.09141544 0 0 Z " fill="#3E8BC3" transform="translate(190,188)"/>
<path d="M0 0 C0.99 0 1.98 0 3 0 C3 2.31 3 4.62 3 7 C5.64 7 8.28 7 11 7 C11 7.33 11 7.66 11 8 C5.06 8 -0.88 8 -7 8 C-7 7.67 -7 7.34 -7 7 C-4.69 7 -2.38 7 0 7 C0 4.69 0 2.38 0 0 Z " fill="#B8D5E7" transform="translate(54,126)"/>
<path d="M0 0 C0.33 0 0.66 0 1 0 C1.226875 0.94875 1.45375 1.8975 1.6875 2.875 C2.69083714 6.19323388 2.69083714 6.19323388 5.625 7.375 C6.800625 7.684375 6.800625 7.684375 8 8 C7.67 8.66 7.34 9.32 7 10 C4.125 10.125 4.125 10.125 1 10 C-1 8 -1 8 -1.1875 4.4375 C-1 1 -1 1 0 0 Z " fill="#F0F7F8" transform="translate(254,145)"/>
<path d="M0 0 C-1.64802051 3.29604103 -4.67745578 3.77590476 -8 5 C-8.66 4.67 -9.32 4.34 -10 4 C-10.33 4.99 -10.66 5.98 -11 7 C-11.33 5.35 -11.66 3.7 -12 2 C-10.75579353 1.4654744 -9.50429064 0.94791389 -8.25 0.4375 C-7.55390625 0.14746094 -6.8578125 -0.14257812 -6.140625 -0.44140625 C-3.69987216 -1.07831803 -2.3596345 -0.80248831 0 0 Z " fill="#DFECF3" transform="translate(130,20)"/>
<path d="M0 0 C-0.3125 1.875 -0.3125 1.875 -1 4 C-4 6 -4 6 -7 6 C-8.68798827 7.43750191 -8.68798827 7.43750191 -10 9 C-10.66 8.67 -11.32 8.34 -12 8 C-10.76284282 6.6547417 -9.50975423 5.32412124 -8.25 4 C-7.20585937 2.88625 -7.20585937 2.88625 -6.140625 1.75 C-4 0 -4 0 0 0 Z " fill="#DAE9F1" transform="translate(253,206)"/>
<path d="M0 0 C0.98484375 0.00902344 1.9696875 0.01804688 2.984375 0.02734375 C4.10585937 0.04474609 4.10585937 0.04474609 5.25 0.0625 C5.25 0.7225 5.25 1.3825 5.25 2.0625 C-0.47040011 2.8945582 -5.97240116 3.18286664 -11.75 3.0625 C-8.30305607 -0.38444393 -4.70567242 -0.05601991 0 0 Z " fill="#E0EDF4" transform="translate(184.75,188.9375)"/>
<path d="M0 0 C0.99 0.33 1.98 0.66 3 1 C3 1.99 3 2.98 3 4 C2.34 4 1.68 4 1 4 C1.33 5.98 1.66 7.96 2 10 C0.68 10 -0.64 10 -2 10 C-2.1953125 3.9453125 -2.1953125 3.9453125 -2 2 C-1.34 1.34 -0.68 0.68 0 0 Z " fill="#D9E9F1" transform="translate(51,143)"/>
<path d="M0 0 C2.64 0 5.28 0 8 0 C8 0.66 8 1.32 8 2 C7.01 2 6.02 2 5 2 C5 4.97 5 7.94 5 11 C4.34 11 3.68 11 3 11 C3 8.03 3 5.06 3 2 C2.01 2 1.02 2 0 2 C0 1.34 0 0.68 0 0 Z " fill="#D8E7F1" transform="translate(117,253)"/>
<path d="M0 0 C2.66866778 1.42328948 3.0107687 3.19124829 3.875 6 C3.215 6.66 2.555 7.32 1.875 8 C-0.765 6.35 -3.405 4.7 -6.125 3 C-2.765 0 -2.765 0 0 0 Z " fill="#297CBD" transform="translate(229.125,16)"/>
<path d="M0 0 C0 2.97 0 5.94 0 9 C-2 9 -2 9 -4.625 6.625 C-7 4 -7 4 -7 2 C-5.68 2.33 -4.36 2.66 -3 3 C-3 2.34 -3 1.68 -3 1 C-1 0 -1 0 0 0 Z " fill="#4C89CB" transform="translate(198,253)"/>
<path d="M0 0 C0.33 0 0.66 0 1 0 C1 3.96 1 7.92 1 12 C1.99 12.33 2.98 12.66 4 13 C3.37611108 16.61855575 2.8290723 17.1709277 0 20 C0 13.4 0 6.8 0 0 Z " fill="#458EC5" transform="translate(284,116)"/>
<path d="M0 0 C2.625 0.9375 2.625 0.9375 5 2 C4.1875 3.9375 4.1875 3.9375 3 6 C2.01 6.33 1.02 6.66 0 7 C-0.33 6.34 -0.66 5.68 -1 5 C-1.66 5.99 -2.32 6.98 -3 8 C-2.74438677 5.6568787 -2.40729228 3.32156597 -2 1 C-1.34 0.67 -0.68 0.34 0 0 Z " fill="#99C2DD" transform="translate(103,213)"/>
<path d="M0 0 C0 2.97 0 5.94 0 9 C-2.5 6.6875 -2.5 6.6875 -5 4 C-5 3.01 -5 2.02 -5 1 C-2 0 -2 0 0 0 Z " fill="#3584C0" transform="translate(113,165)"/>
<path d="M0 0 C0.99 0.33 1.98 0.66 3 1 C3.625 3.875 3.625 3.875 4 7 C1.4345406 9.5654594 -0.47686668 9.54046087 -4 10 C-2.68 9.01 -1.36 8.02 0 7 C-0.2784375 5.824375 -0.2784375 5.824375 -0.5625 4.625 C-1 2 -1 2 0 0 Z " fill="#DDEBF3" transform="translate(78,67)"/>
<path d="M0 0 C5.625 -0.25 5.625 -0.25 9 2 C9.1875 4.625 9.1875 4.625 9 7 C8.01 7 7.02 7 6 7 C6 5.68 6 4.36 6 3 C3.69 2.67 1.38 2.34 -1 2 C-0.67 1.34 -0.34 0.68 0 0 Z " fill="#F0F6F9" transform="translate(193,21)"/>
<path d="M0 0 C3.36720387 1.39332574 4.9859524 2.9789286 7 6 C4 8 4 8 1.8125 7.625 C1.214375 7.41875 0.61625 7.2125 0 7 C0 4.66666667 0 2.33333333 0 0 Z " fill="#EAF3F6" transform="translate(90,194)"/>
<path d="M0 0 C0 1.32 0 2.64 0 4 C-4.07142857 7 -4.07142857 7 -7 7 C-7.33 5.68 -7.66 4.36 -8 3 C-2.25 0 -2.25 0 0 0 Z " fill="#E0EDF4" transform="translate(64,170)"/>
<path d="M0 0 C0.66 0 1.32 0 2 0 C2.50692692 1.5811292 3.00526443 3.16501383 3.5 4.75 C3.7784375 5.63171875 4.056875 6.5134375 4.34375 7.421875 C5 10 5 10 5 14 C4.34 14 3.68 14 3 14 C2.49307308 12.4188708 1.99473557 10.83498617 1.5 9.25 C1.2215625 8.36828125 0.943125 7.4865625 0.65625 6.578125 C0 4 0 4 0 0 Z " fill="#247BBC" transform="translate(101,148)"/>
<path d="M0 0 C0.33 0.66 0.66 1.32 1 2 C1.66 2 2.32 2 3 2 C3.185625 2.9590625 3.185625 2.9590625 3.375 3.9375 C3.684375 4.9584375 3.684375 4.9584375 4 6 C4.66 6.33 5.32 6.66 6 7 C6 7.99 6 8.98 6 10 C4.68 10 3.36 10 2 10 C-0.4294516 6.3558226 -0.16179575 4.28758728 0 0 Z " fill="#E6F1F6" transform="translate(255,127)"/>
<path d="M0 0 C2.625 0.375 2.625 0.375 5 1 C4.67 2.32 4.34 3.64 4 5 C1.69 5.33 -0.62 5.66 -3 6 C-2.42655063 3.13275314 -2.1385485 2.1385485 0 0 Z " fill="#E7F1F6" transform="translate(56,87)"/>
<path d="M0 0 C0.33 0 0.66 0 1 0 C1.33 2.31 1.66 4.62 2 7 C0.35 7 -1.3 7 -3 7 C-3.33 6.34 -3.66 5.68 -4 5 C-4.99 5.66 -5.98 6.32 -7 7 C-6.34 5.35 -5.68 3.7 -5 2 C-3.68 2.33 -2.36 2.66 -1 3 C-0.67 2.01 -0.34 1.02 0 0 Z " fill="#95BFDC" transform="translate(177,21)"/>
<path d="M0 0 C0.66 0 1.32 0 2 0 C1.125 6.875 1.125 6.875 0 8 C-2.5 8.125 -2.5 8.125 -5 8 C-6 7 -6 7 -6.0625 3.9375 C-6.041875 2.968125 -6.02125 1.99875 -6 1 C-5.34 2.32 -4.68 3.64 -4 5 C-3.01 5 -2.02 5 -1 5 C-0.67 3.35 -0.34 1.7 0 0 Z " fill="#E5F0F5" transform="translate(171,256)"/>
<path d="M0 0 C0.66 0 1.32 0 2 0 C2 3.63 2 7.26 2 11 C-1 7 -1 7 -1 5 C-1.99 5 -2.98 5 -4 5 C-4 4.01 -4 3.02 -4 2 C-2.68 2 -1.36 2 0 2 C0 1.34 0 0.68 0 0 Z " fill="#3A86C5" transform="translate(78,253)"/>
<path d="M0 0 C0.99 0 1.98 0 3 0 C3 3.63 3 7.26 3 11 C2.01 10.34 1.02 9.68 0 9 C-0.29296875 6.8359375 -0.29296875 6.8359375 -0.1875 4.375 C-0.16042969 3.55773437 -0.13335937 2.74046875 -0.10546875 1.8984375 C-0.05326172 0.95871094 -0.05326172 0.95871094 0 0 Z " fill="#CEE3EF" transform="translate(89,253)"/>
<path d="M0 0 C1.8871875 0.0309375 1.8871875 0.0309375 3.8125 0.0625 C3.8125 0.3925 3.8125 0.7225 3.8125 1.0625 C1.5025 1.3925 -0.8075 1.7225 -3.1875 2.0625 C-0.2175 2.5575 -0.2175 2.5575 2.8125 3.0625 C2.8125 3.3925 2.8125 3.7225 2.8125 4.0625 C1.87277344 4.26166016 1.87277344 4.26166016 0.9140625 4.46484375 C-0.31183594 4.72974609 -0.31183594 4.72974609 -1.5625 5 C-2.37460937 5.17402344 -3.18671875 5.34804687 -4.0234375 5.52734375 C-6.216963 5.98580693 -6.216963 5.98580693 -8.1875 7.0625 C-8.1875 6.0725 -8.1875 5.0825 -8.1875 4.0625 C-7.5275 3.7325 -6.8675 3.4025 -6.1875 3.0625 C-6.5175 2.4025 -6.8475 1.7425 -7.1875 1.0625 C-4.43671116 0.14557039 -2.82801087 -0.04636083 0 0 Z " fill="#CBE1ED" transform="translate(263.1875,96.9375)"/>
<path d="M0 0 C0.66 0 1.32 0 2 0 C3.625 2.5 3.625 2.5 5 5 C4.01 6.32 3.02 7.64 2 9 C0.68 7.35 -0.64 5.7 -2 4 C-1.34 2.68 -0.68 1.36 0 0 Z " fill="#2C7FBE" transform="translate(241,54)"/>
<path d="M0 0 C0.33 0 0.66 0 1 0 C1.34934248 2.93447681 1.51495218 5.14367502 -0.04296875 7.734375 C-1.375 9.375 -1.375 9.375 -4 12 C-4.66 12 -5.32 12 -6 12 C-4 8 -2 4 0 0 Z " fill="#F5FAFB" transform="translate(233,43)"/>
<path d="M0 0 C1.32 0.66 2.64 1.32 4 2 C4 3.32 4 4.64 4 6 C2.68 6 1.36 6 0 6 C-0.38218767 4.34385343 -0.71395102 2.67542976 -1 1 C-0.67 0.67 -0.34 0.34 0 0 Z " fill="#287CBE" transform="translate(87,195)"/>
<path d="M0 0 C0.66 0 1.32 0 2 0 C2 2.31 2 4.62 2 7 C2.99 7 3.98 7 5 7 C5 7.66 5 8.32 5 9 C3.35 8.67 1.7 8.34 0 8 C-0.38063221 5.6739143 -0.71269945 3.33944736 -1 1 C-0.67 0.67 -0.34 0.34 0 0 Z " fill="#D8E6F1" transform="translate(132,255)"/>
<path d="M0 0 C0.33 0 0.66 0 1 0 C1 1.98 1 3.96 1 6 C1.99 5.67 2.98 5.34 4 5 C4.33 3.35 4.66 1.7 5 0 C5.33 0 5.66 0 6 0 C6 2.31 6 4.62 6 7 C3.69 7.33 1.38 7.66 -1 8 C-0.67 5.36 -0.34 2.72 0 0 Z " fill="#EEF6F8" transform="translate(81,256)"/>
<path d="M0 0 C2.64 1.65 5.28 3.3 8 5 C7.67 5.66 7.34 6.32 7 7 C4.625 7.125 4.625 7.125 2 7 C0 5 0 5 -0.125 2.375 C-0.08375 1.59125 -0.0425 0.8075 0 0 Z " fill="#F2F8F9" transform="translate(226,205)"/>
<path d="M0 0 C0.99 0.33 1.98 0.66 3 1 C2.67 3.64 2.34 6.28 2 9 C0.68 8.67 -0.64 8.34 -2 8 C-1.125 2.25 -1.125 2.25 0 0 Z " fill="#E4EFF5" transform="translate(44,79)"/>
<path d="M0 0 C2.375 -0.125 2.375 -0.125 5 0 C7 2 7 2 7 6 C4.33333333 4.66666667 1.66666667 3.33333333 -1 2 C-0.67 1.34 -0.34 0.68 0 0 Z " fill="#F2F8F9" transform="translate(93,36)"/>
<path d="M0 0 C0 0.33 0 0.66 0 1 C-1.65 1.33 -3.3 1.66 -5 2 C-4.01 2.66 -3.02 3.32 -2 4 C-2.928125 4.12375 -2.928125 4.12375 -3.875 4.25 C-6.18437567 4.81258459 -6.18437567 4.81258459 -7.25 7.0625 C-7.4975 7.701875 -7.745 8.34125 -8 9 C-8.66 7.02 -9.32 5.04 -10 3 C-6.68152292 -0.06320961 -4.44849969 -0.3033068 0 0 Z " fill="#CBE1ED" transform="translate(263,141)"/>
<path d="M0 0 C2.56687367 3.8503105 1.83288724 5.58569763 1 10 C-0.32 10.33 -1.64 10.66 -3 11 C-2.01 7.37 -1.02 3.74 0 0 Z " fill="#1968A7" transform="translate(39,78)"/>
<path d="M0 0 C0 3.27427197 -0.15818587 5.84319701 -1 9 C-2.98 9 -4.96 9 -7 9 C-6.02180976 7.68677212 -5.0424189 6.37443848 -4.0625 5.0625 C-3.51722656 4.33160156 -2.97195312 3.60070313 -2.41015625 2.84765625 C-1 1 -1 1 0 0 Z " fill="#1B6CAA" transform="translate(68,34)"/>
<path d="M0 0 C2.97 0 5.94 0 9 0 C9 0.99 9 1.98 9 3 C5.7 2.67 2.4 2.34 -1 2 C-0.67 1.34 -0.34 0.68 0 0 Z " fill="#F8FBFA" transform="translate(258,142)"/>
<path d="M0 0 C1.98 0.495 1.98 0.495 4 1 C3.67 2.65 3.34 4.3 3 6 C1.68 5.67 0.36 5.34 -1 5 C-0.67 3.35 -0.34 1.7 0 0 Z " fill="#2C7FBF" transform="translate(56,91)"/>
<path d="M0 0 C0.99 0.33 1.98 0.66 3 1 C2.67 2.65 2.34 4.3 2 6 C0.0625 5.6875 0.0625 5.6875 -2 5 C-2.33 4.01 -2.66 3.02 -3 2 C-2.01 1.34 -1.02 0.68 0 0 Z " fill="#2C7FBE" transform="translate(94,39)"/>
<path d="M0 0 C1.65 0 3.3 0 5 0 C5.33 1.32 5.66 2.64 6 4 C4.35 4.33 2.7 4.66 1 5 C0.67 3.35 0.34 1.7 0 0 Z " fill="#257CBD" transform="translate(139,19)"/>
<path d="M0 0 C3.3 0 6.6 0 10 0 C10.33 0.99 10.66 1.98 11 3 C7.04 2.67 3.08 2.34 -1 2 C-0.67 1.34 -0.34 0.68 0 0 Z " fill="#FCFCFC" transform="translate(260,124)"/>
<path d="M0 0 C0.33 0 0.66 0 1 0 C0.67 2.31 0.34 4.62 0 7 C-1.32 7.33 -2.64 7.66 -4 8 C-4.33 7.01 -4.66 6.02 -5 5 C-4.34 4.67 -3.68 4.34 -3 4 C-2.34 3.01 -1.68 2.02 -1 1 C-0.67 0.67 -0.34 0.34 0 0 Z " fill="#E2EFF5" transform="translate(270,102)"/>
<path d="M0 0 C2.64 0.33 5.28 0.66 8 1 C7.67 1.99 7.34 2.98 7 4 C4.36 3.67 1.72 3.34 -1 3 C-0.67 2.01 -0.34 1.02 0 0 Z " fill="#EEF6F8" transform="translate(64,90)"/>
<path d="M0 0 C1.67542976 0.28604898 3.34385343 0.61781233 5 1 C5 1.66 5 2.32 5 3 C3.68 2.67 2.36 2.34 1 2 C1.33 2.99 1.66 3.98 2 5 C0.68 5 -0.64 5 -2 5 C-1.125 1.125 -1.125 1.125 0 0 Z " fill="#D0E2EF" transform="translate(190,253)"/>
<path d="M0 0 C0.66 0.33 1.32 0.66 2 1 C2 4.3 2 7.6 2 11 C1.34 10.67 0.68 10.34 0 10 C-0.77811718 6.18015204 -1.24386556 3.73159669 0 0 Z " fill="#1A73B7" transform="translate(39,162)"/>
<path d="M0 0 C0.66 0 1.32 0 2 0 C2.66 2.97 3.32 5.94 4 9 C3.01 9 2.02 9 1 9 C0.67 6.03 0.34 3.06 0 0 Z " fill="#3785C2" transform="translate(110,154)"/>
<path d="M0 0 C1.65 0.99 3.3 1.98 5 3 C4.34 4.65 3.68 6.3 3 8 C2.34 8 1.68 8 1 8 C0.67 5.36 0.34 2.72 0 0 Z " fill="#2A7FBE" transform="translate(283,107)"/>
<path d="M0 0 C2.4375 0.375 2.4375 0.375 5 1 C5.33 1.66 5.66 2.32 6 3 C4.35 2.67 2.7 2.34 1 2 C1.66 3.32 2.32 4.64 3 6 C1.68 5.67 0.36 5.34 -1 5 C-0.67 3.35 -0.34 1.7 0 0 Z " fill="#DDECF3" transform="translate(246,253)"/>
<path d="M0 0 C1.80411967 2.75924185 2.0127245 3.88972103 1.625 7.25 C1.41875 8.1575 1.2125 9.065 1 10 C0.01 9.67 -0.98 9.34 -2 9 C-2 6.36 -2 3.72 -2 1 C-1.34 0.67 -0.68 0.34 0 0 Z " fill="#999999" transform="translate(214,112)"/>
<path d="M0 0 C2.4375 0.6875 2.4375 0.6875 5 2 C5.9375 4.5 5.9375 4.5 6 7 C5.34 7.66 4.68 8.32 4 9 C4 8.01 4 7.02 4 6 C3.34 6 2.68 6 2 6 C1.34 4.02 0.68 2.04 0 0 Z " fill="#81B2D5" transform="translate(81,55)"/>
<path d="M0 0 C1.65 1.65 3.3 3.3 5 5 C4.67 5.99 4.34 6.98 4 8 C3.34 8 2.68 8 2 8 C0.61061923 6.03852126 -0.7260411 4.03833424 -2 2 C-1.34 2 -0.68 2 0 2 C0 1.34 0 0.68 0 0 Z " fill="#DEEBF2" transform="translate(238,56)"/>
<path d="M0 0 C1.98 0 3.96 0 6 0 C5.01 0.495 5.01 0.495 4 1 C4 2.32 4 3.64 4 5 C3.34 5 2.68 5 2 5 C1.67 5.99 1.34 6.98 1 8 C0.67 5.36 0.34 2.72 0 0 Z " fill="#3987C2" transform="translate(140,27)"/>
<path d="M0 0 C1.67542976 0.28604898 3.34385343 0.61781233 5 1 C5.33 1.99 5.66 2.98 6 4 C3.525 3.01 3.525 3.01 1 2 C1 3.98 1 5.96 1 8 C0.67 8 0.34 8 0 8 C-0.38063221 5.6739143 -0.71269945 3.33944736 -1 1 C-0.67 0.67 -0.34 0.34 0 0 Z " fill="#CDE2EF" transform="translate(219,253)"/>
<path d="M0 0 C-0.66 0 -1.32 0 -2 0 C-2 0.66 -2 1.32 -2 2 C-1.01 2.33 -0.02 2.66 1 3 C-5.0546875 3.1953125 -5.0546875 3.1953125 -7 3 C-7.66 2.34 -8.32 1.68 -9 1 C-5.57367167 -0.61798838 -3.61944899 -1.34053666 0 0 Z " fill="#CDE1EE" transform="translate(266,154)"/>
<path d="M0 0 C0.99 0 1.98 0 3 0 C2.67 2.97 2.34 5.94 2 9 C1.67 8.01 1.34 7.02 1 6 C0.34 6 -0.32 6 -1 6 C-0.67 4.02 -0.34 2.04 0 0 Z " fill="#CFE3ED" transform="translate(49,104)"/>
<path d="M0 0 C-0.33 1.32 -0.66 2.64 -1 4 C-2.65 4.33 -4.3 4.66 -6 5 C-5.625 3.0625 -5.625 3.0625 -5 1 C-3 0 -3 0 0 0 Z " fill="#EBF3F6" transform="translate(252,83)"/>
<path d="M0 0 C0.33 0 0.66 0 1 0 C1.125 7.75 1.125 7.75 0 10 C-0.66 10 -1.32 10 -2 10 C-2.17942163 6.05272412 -2.09350689 3.4019487 0 0 Z " fill="#F6FAFA" transform="translate(213,38)"/>
<path d="M0 0 C0.99 0 1.98 0 3 0 C3 2.31 3 4.62 3 7 C2.01 7 1.02 7 0 7 C0 4.69 0 2.38 0 0 Z " fill="#356FC8" transform="translate(134,255)"/>
<path d="M0 0 C0.99 0 1.98 0 3 0 C3 2.31 3 4.62 3 7 C2.01 7 1.02 7 0 7 C0 4.69 0 2.38 0 0 Z " fill="#316DC6" transform="translate(167,255)"/>
<path d="M0 0 C1.98 0 3.96 0 6 0 C5.67 1.65 5.34 3.3 5 5 C4.67 4.34 4.34 3.68 4 3 C2.68 3 1.36 3 0 3 C0 2.01 0 1.02 0 0 Z " fill="#3A71C7" transform="translate(158,255)"/>
<path d="M0 0 C2.475 0.495 2.475 0.495 5 1 C5 1.99 5 2.98 5 4 C3.68 4 2.36 4 1 4 C0.67 2.68 0.34 1.36 0 0 Z " fill="#257CBE" transform="translate(81,202)"/>
<path d="M0 0 C0.99 0 1.98 0 3 0 C2.67 2.97 2.34 5.94 2 9 C1.01 8.34 0.02 7.68 -1 7 C-0.67 4.69 -0.34 2.38 0 0 Z " fill="#DEECF3" transform="translate(64,107)"/>
<path d="M0 0 C1.875 0.25 1.875 0.25 4 1 C5.25 3.0625 5.25 3.0625 6 5 C4.35 4.67 2.7 4.34 1 4 C0.67 2.68 0.34 1.36 0 0 Z " fill="#F2F7F9" transform="translate(64,71)"/>
<path d="M0 0 C-0.66 1.32 -1.32 2.64 -2 4 C-3.65 4 -5.3 4 -7 4 C-7.33 3.34 -7.66 2.68 -8 2 C-4.91190305 0.23537317 -3.76687864 0 0 0 Z " fill="#EAF3F7" transform="translate(200,34)"/>
<path d="M0 0 C0.99 0 1.98 0 3 0 C3.66 1.98 4.32 3.96 5 6 C3.35 6 1.7 6 0 6 C0 4.02 0 2.04 0 0 Z " fill="#ECF5F8" transform="translate(147,27)"/>
<path d="M0 0 C0.99 0.33 1.98 0.66 3 1 C3 2.98 3 4.96 3 7 C2.01 7 1.02 7 0 7 C0 4.69 0 2.38 0 0 Z " fill="#3685C6" transform="translate(82,255)"/>
<path d="M0 0 C-3.6441774 2.4294516 -5.71241272 2.16179575 -10 2 C-10 1.34 -10 0.68 -10 0 C-6.33694766 -0.74926071 -3.57644848 -1.2380014 0 0 Z " fill="#3083C0" transform="translate(186,192)"/>
<path d="M0 0 C2 3 2 3 1.625 6.1875 C1.41875 7.115625 1.2125 8.04375 1 9 C0.01 9.33 -0.98 9.66 -2 10 C-2 8.02 -2 6.04 -2 4 C-1.34 4 -0.68 4 0 4 C0 2.68 0 1.36 0 0 Z " fill="#A2A2A2" transform="translate(214,150)"/>
<path d="M0 0 C0.66 0.33 1.32 0.66 2 1 C2.59355614 3.64860427 2.74209269 6.29197322 3 9 C2.34 9 1.68 9 1 9 C0.63877119 7.68942607 0.28619689 6.37646376 -0.0625 5.0625 C-0.35833984 3.96615234 -0.35833984 3.96615234 -0.66015625 2.84765625 C-0.77230469 2.23792969 -0.88445312 1.62820312 -1 1 C-0.67 0.67 -0.34 0.34 0 0 Z " fill="#257CBD" transform="translate(103,130)"/>
<path d="M0 0 C1.20628008 2.33214148 2.1654738 4.49642139 3 7 C2.01 7.495 2.01 7.495 1 8 C-1.625 7.0625 -1.625 7.0625 -4 6 C-2.68 5.34 -1.36 4.68 0 4 C0 2.68 0 1.36 0 0 Z " fill="#6EA8CE" transform="translate(100,117)"/>
<path d="M0 0 C0.99 0.33 1.98 0.66 3 1 C2.01 1.33 1.02 1.66 0 2 C-0.33 3.98 -0.66 5.96 -1 8 C-1.66 8 -2.32 8 -3 8 C-2.25 2.25 -2.25 2.25 0 0 Z " fill="#F0F7FA" transform="translate(255,99)"/>
<path d="M0 0 C3.125 -0.1875 3.125 -0.1875 6 0 C5.67 0.99 5.34 1.98 5 3 C2.69 3 0.38 3 -2 3 C-1.34 2.01 -0.68 1.02 0 0 Z " fill="#F1F7F9" transform="translate(67,63)"/>
<path d="M0 0 C0 0.66 0 1.32 0 2 C-1.98 2.66 -3.96 3.32 -6 4 C-6.99 3.01 -7.98 2.02 -9 1 C-5.92677456 0.08941469 -3.19902639 -0.08886184 0 0 Z " fill="#DEEBF3" transform="translate(135,34)"/>
<path d="M0 0 C3.96 0.33 7.92 0.66 12 1 C12 1.33 12 1.66 12 2 C6.06 2.495 6.06 2.495 0 3 C0 2.01 0 1.02 0 0 Z " fill="#3384C2" transform="translate(138,0)"/>
<path d="M0 0 C1.65 0.33 3.3 0.66 5 1 C5.33 1.99 5.66 2.98 6 4 C5.01 4 4.02 4 3 4 C3 3.34 3 2.68 3 2 C2.34 2 1.68 2 1 2 C0.67 2.66 0.34 3.32 0 4 C0 2.68 0 1.36 0 0 Z " fill="#C8DFED" transform="translate(237,253)"/>
<path d="M0 0 C0.33 0.99 0.66 1.98 1 3 C-0.98 3.99 -2.96 4.98 -5 6 C-5 5.01 -5 4.02 -5 3 C-2.5 1.3125 -2.5 1.3125 0 0 Z " fill="#F5F9FA" transform="translate(218,232)"/>
<path d="M0 0 C6.0546875 -0.1953125 6.0546875 -0.1953125 8 0 C8.66 0.66 9.32 1.32 10 2 C6.18510326 3.46726798 3.70988378 2.43336419 0 1 C0 0.67 0 0.34 0 0 Z " fill="#3D89C2" transform="translate(141,188)"/>
<path d="M0 0 C0.99 0 1.98 0 3 0 C2.67 2.31 2.34 4.62 2 7 C1.01 6.67 0.02 6.34 -1 6 C-0.67 4.02 -0.34 2.04 0 0 Z " fill="#D9E9F1" transform="translate(56,107)"/>
<path d="M0 0 C2 1 2 1 4 4 C2.35 4.33 0.7 4.66 -1 5 C-1.33 3.68 -1.66 2.36 -2 1 C-1.34 0.67 -0.68 0.34 0 0 Z " fill="#3283C1" transform="translate(109,29)"/>
<path d="M0 0 C1.65 0.33 3.3 0.66 5 1 C5 1.66 5 2.32 5 3 C3.02 3.33 1.04 3.66 -1 4 C-0.67 2.68 -0.34 1.36 0 0 Z " fill="#F4F9F9" transform="translate(123,6)"/>
<path d="M0 0 C1.65 0 3.3 0 5 0 C5 3 5 3 4 5 C2.68 4.67 1.36 4.34 0 4 C0 2.68 0 1.36 0 0 Z " fill="#95B8E0" transform="translate(175,253)"/>
<path d="M0 0 C0.99 0.33 1.98 0.66 3 1 C2.67 2.98 2.34 4.96 2 7 C1.34 7 0.68 7 0 7 C-0.38133299 5.0085944 -0.71325582 3.00720923 -1 1 C-0.67 0.67 -0.34 0.34 0 0 Z " fill="#C4DAEA" transform="translate(112,253)"/>
<path d="M0 0 C1.32 0.66 2.64 1.32 4 2 C3.01 3.485 3.01 3.485 2 5 C0.68 4.67 -0.64 4.34 -2 4 C-1.34 2.68 -0.68 1.36 0 0 Z " fill="#1C76BD" transform="translate(233,204)"/>
<path d="M0 0 C-0.33 1.32 -0.66 2.64 -1 4 C-2.65 4.33 -4.3 4.66 -6 5 C-6 4.34 -6 3.68 -6 3 C-2.53846154 0 -2.53846154 0 0 0 Z " fill="#F5FBFB" transform="translate(270,151)"/>
<path d="M0 0 C1.65 0.33 3.3 0.66 5 1 C4.01 2.32 3.02 3.64 2 5 C1.01 4.67 0.02 4.34 -1 4 C-0.67 2.68 -0.34 1.36 0 0 Z " fill="#1A71B3" transform="translate(194,1)"/>
<path d="M0 0 C1.32 0.66 2.64 1.32 4 2 C3.67 2.99 3.34 3.98 3 5 C1.68 4.34 0.36 3.68 -1 3 C-0.67 2.01 -0.34 1.02 0 0 Z " fill="#F4F9FA" transform="translate(71,209)"/>
<path d="M0 0 C1.32 1.65 2.64 3.3 4 5 C3.67 5.66 3.34 6.32 3 7 C1.02 6.34 -0.96 5.68 -3 5 C-2.01 4.67 -1.02 4.34 0 4 C0 2.68 0 1.36 0 0 Z " fill="#CAE0ED" transform="translate(85,197)"/>
<path d="M0 0 C0 0.99 0 1.98 0 3 C-1.32 3 -2.64 3 -4 3 C-4 2.34 -4 1.68 -4 1 C-4.66 0.67 -5.32 0.34 -6 0 C-3.50907189 -1.24546405 -2.58919267 -0.7767578 0 0 Z " fill="#D1E4EE" transform="translate(71,159)"/>
<path d="M0 0 C0.66 0.33 1.32 0.66 2 1 C-0.97 3.475 -0.97 3.475 -4 6 C-4.99 5.34 -5.98 4.68 -7 4 C-1.7265625 0.77734375 -1.7265625 0.77734375 0 0 Z " fill="#418CC3" transform="translate(248,70)"/>
<path d="M0 0 C2 2 2 2 2.125 5.625 C2.08375 6.73875 2.0425 7.8525 2 9 C1.34 9 0.68 9 0 9 C-0.66 7.35 -1.32 5.7 -2 4 C-1.34 4 -0.68 4 0 4 C0 2.68 0 1.36 0 0 Z " fill="#D4E7EF" transform="translate(110,37)"/>
</svg>
